<svg version="1.1" id="Layer_1" xmlns="http://www.w3.org/2000/svg"
	xmlns:xlink="http://www.w3.org/1999/xlink" x="0px" y="0px"
	width="100%" viewBox="0 0 1024 1024" enable-background="new 0 0 1024 1024" xml:space="preserve">
<path fill="#3E494D" opacity="1.000000" stroke="none" 
	d="
M465.000000,1025.000000 
	C310.000000,1025.000000 155.500000,1025.000000 1.000000,1025.000000 
	C1.000000,683.666687 1.000000,342.333344 1.000000,1.000000 
	C342.333344,1.000000 683.666687,1.000000 1025.000000,1.000000 
	C1025.000000,342.333344 1025.000000,683.666687 1025.000000,1025.000000 
	C838.500000,1025.000000 652.000000,1025.000000 465.000000,1025.000000 
M592.245056,575.925232 
	C589.161499,574.283020 586.077942,583.145691,570.277405 
	C583.430725,563.723022 583.414307,557.133606 584.168579,550.633667 
	C584.423523,548.436951 586.611145,546.454346 587.952881,544.398254 
	C588.615356,543.383057 590.181030,542.119202 589.945435,541.485779 
	C587.615173,535.219788 590.411621,529.852234 592.269653,524.159485 
	C594.593689,517.039185 592.960266,514.119385 585.421936,514.157776 
	C579.776306,514.186462 574.131470,516.684387 568.520142,518.207520 
	C567.834656,518.393555 567.444031,519.478333 566.772339,519.933533 
	C561.887878,523.244019 556.982239,526.524292 552.030396,529.732300 
	C551.570557,530.030212 550.718079,529.873352 550.089661,529.736267 
	C543.533081,528.306274 536.965088,526.917419 530.454773,525.297852 
	C529.389404,525.032837 528.172546,523.849792 527.807068,522.815063 
	C527.546875,522.078491 528.328186,520.422668 529.108215,519.962219 
	C533.185791,517.555176 537.354614,515.284180 541.598145,513.180725 
	C549.276123,509.375000 557.009399,505.678955 564.759155,502.020813 
	C569.081238,499.980682 573.492737,498.130981 577.846436,496.156738 
	C583.743896,493.482483 589.737671,490.983307 595.440491,487.941010 
	C597.066956,487.073303 598.156494,484.714569 598.921875,482.810303 
	C601.009216,477.616974 602.791931,472.301239 605.185181,465.678497 
	C607.813538,469.880096 609.930786,473.092010 611.869934,476.408142 
	C614.312439,480.585236 617.860413,481.407715 620.691956,478.865906 
	C623.157776,476.652374 626.126404,474.900269 629.088257,473.357788 
	C636.116577,469.697510 645.831604,473.229004 651.283813,465.131989 
	C651.581604,464.689850 652.487793,464.628204 653.127686,464.450043 
	C663.089783,461.676025 673.023132,458.788544 683.037476,456.217285 
	C686.244629,455.393829 687.388367,453.763733 687.373840,450.623352 
	C687.338440,442.972870 687.571960,435.321014 687.528442,427.670685 
	C687.395996,404.400055 687.013306,381.129639 687.047180,357.859589 
	C687.086182,331.043213 687.414001,304.226654 687.762207,277.412079 
	C687.805969,274.044922 686.684814,272.963013 683.440735,273.161102 
	C673.012451,273.797821 662.620544,274.177216 652.502197,277.532776 
	C649.401855,278.560974 645.524536,277.158142 641.997131,277.022125 
	C640.111023,276.949402 637.345215,276.438354 636.463379,277.437469 
	C631.593445,282.955200 625.227966,282.526855 618.914673,282.694244 
	C614.493835,282.811432 610.692932,284.034119 608.361694,288.947418 
	C607.910950,288.969788 607.460205,288.992157 606.290955,288.766998 
	C602.028076,289.165436 597.595581,290.502136 593.537292,289.768616 
	C584.857544,288.199707 583.478760,293.829559 581.837280,299.866272 
	C578.493042,312.164764 574.943481,324.408081 571.678162,336.727051 
	C570.402893,341.538422 569.013672,346.026306 563.992981,348.292786 
	C561.080017,349.607727 560.410522,351.179413 562.861572,353.994202 
	C564.044006,355.352020 564.538818,358.066559 564.138550,359.903992 
	C562.886841,365.649689 560.005249,371.217743 559.720093,376.952332 
	C559.351624,384.365295 555.708191,390.119354 552.954956,396.431549 
	C552.375183,397.760651 552.089539,399.697784 552.624268,400.944885 
	C554.356018,404.983643 553.087341,407.577484 549.586609,409.743530 
	C547.858093,410.813080 546.418579,412.349670 544.019592,414.374329 
	C551.417847,417.273834 548.743408,421.428375 547.000366,425.758972 
	C545.685486,429.025696 545.771667,432.904572 542.054688,434.917419 
	C541.515930,435.209137 541.336670,436.391235 541.216858,437.194977 
	C540.090881,444.745300 538.874268,452.286591 537.985718,459.865875 
	C537.579834,463.328888 536.560486,465.505493 532.627014,465.629364 
	C531.402832,465.667938 530.215393,466.877045 529.011169,467.550293 
	C529.628235,468.637360 529.985840,470.096588 530.911072,470.741516 
	C533.669739,472.664459 532.973022,474.588776 531.951660,477.217499 
	C530.883911,479.965607 530.208008,483.123474 530.381592,486.041504 
	C530.719055,491.714600 529.510498,496.594269 525.371094,500.587921 
	C523.317749,502.569000 521.515381,502.882629 519.675781,500.101562 
	C518.891052,498.915283 517.142395,497.396973 516.131165,497.590881 
	C515.021973,497.803528 514.371338,499.925568 513.318420,501.020905 
	C511.513885,502.898041 509.591309,506.071777 507.648041,506.124817 
	C502.975403,506.252228 500.369110,508.228302 496.748230,511.083344 
	C490.117584,516.311584 483.179840,522.621338 473.227234,521.212280 
	C470.191467,520.782471 467.719421,521.981934 467.918640,526.059692 
	C467.981995,527.356995 466.751526,529.200989 465.573883,529.987549 
	C461.517639,532.696594 457.096649,534.866638 453.094116,537.644714 
	C451.847229,538.510193 450.763947,540.693787 450.849457,542.203491 
	C451.169037,547.848083 452.123474,553.453796 452.579376,559.095154 
	C452.733063,560.997498 452.236267,562.989929 451.813721,564.891663 
	C451.304291,567.184326 450.887543,569.595642 449.825714,571.641602 
	C448.628235,573.949097 447.157623,577.072693 445.098236,577.779358 
	C440.547333,579.341003 435.559601,579.654602 430.737213,580.393250 
	C426.087677,581.105469 424.906647,582.822571 425.716187,587.650940 
	C425.865051,588.538818 425.767822,589.705566 425.294861,590.419312 
	C423.157379,593.645020 414.484619,595.238464 411.567596,592.768066 
	C410.730743,592.059387 410.484497,590.071167 410.713715,588.804749 
	C411.219147,586.012329 412.871552,583.309082 412.884277,580.563965 
	C413.042206,546.572632 413.030701,512.580200 412.947052,478.588409 
	C412.934387,473.438049 414.425262,467.847137 409.622223,463.636871 
	C409.039490,463.126038 409.073273,461.743744 409.071014,460.764740 
	C409.048035,450.767883 409.023102,440.770325 409.124573,430.774261 
	C409.154175,427.857605 409.463562,425.004822 413.707397,425.150848 
	C414.597839,425.181458 416.411957,423.487396 416.331512,422.747894 
	C415.484711,414.964996 419.166779,411.905365 426.529449,410.133667 
	C432.108337,408.791229 436.966705,404.627106 442.309998,402.060760 
	C445.004944,400.766357 448.229797,399.908752 450.040558,403.634827 
	C454.274323,412.346893 451.503693,421.648560 451.886047,430.658447 
	C452.027100,433.981750 451.255890,437.663635 454.679199,438.677399 
	C456.902374,439.335724 460.014221,437.468018 462.578094,436.379272 
	C465.681274,435.061371 468.587463,433.287323 471.650696,431.865387 
	C474.739410,430.431641 477.901520,429.151459 481.059235,427.872467 
	C483.212646,427.000275 485.356201,425.886108 487.607513,425.525696 
	C490.744659,425.023438 494.058167,425.530060 494.358276,420.780640 
	C494.436646,419.540497 496.095093,417.838898 497.406342,417.336121 
	C502.781799,415.274750 508.303497,413.594666 513.771362,411.774261 
	C515.083496,411.743011 515.647095,409.721405 516.857056,409.200195 
	C522.379333,406.821289 522.975220,402.191254 522.981140,397.179565 
	C523.001587,379.882263 522.841187,362.582489 523.120056,345.289642 
	C523.178589,341.660461 525.141479,338.100037 525.626587,334.428650 
	C526.084656,330.961639 527.238220,325.961975 525.484314,324.137360 
	C520.575745,319.031006 521.802002,314.529205 524.206421,309.276367 
	C524.554504,308.515991 523.368835,306.075073 522.923035,306.083130 
	C519.031860,306.153259 515.100281,306.337555 511.274261,307.015656 
	C507.323975,307.715820 503.469513,308.975037 499.594574,310.065948 
	C498.876648,310.268097 498.285767,310.884186 497.593018,311.220001 
	C495.219421,312.370667 492.893402,313.665894 490.424103,314.560760 
	C487.353943,315.673309 484.113770,316.314087 481.035034,317.406616 
	C479.095581,318.094849 477.380127,319.398834 475.455505,320.146973 
	C468.448090,322.870697 461.312531,323.735687 453.978577,321.376251 
	C453.323395,321.165497 452.443085,321.654480 451.251373,321.906433 
	C453.496368,326.991058 450.061951,328.519226 446.528137,329.302795 
	C443.731232,329.922974 440.713837,329.507507 437.800293,329.662720 
	C436.599213,329.726746 434.610809,329.735718 434.344116,330.356018 
	C431.437531,337.116272 425.320129,336.720306 419.587585,337.488647 
	C417.901031,337.714691 416.314667,338.862122 414.736694,339.690735 
	C410.516510,341.906891 406.535828,345.248535 402.063995,346.126770 
	C397.635712,346.996521 392.751465,345.445221 391.610962,351.858490 
	C391.564819,352.118011 391.171143,352.349365 390.897156,352.529663 
	C386.948364,355.128693 383.212494,359.380890 378.989349,359.939667 
	C371.594452,360.918121 368.490051,366.419220 364.061432,370.604248 
	C360.493408,373.975983 357.168793,377.647491 354.067230,381.455627 
	C352.002106,383.991119 350.493683,386.985321 348.783478,389.803009 
	C347.330261,392.197266 345.351868,394.470459 344.638184,397.079620 
	C342.289551,405.666138 338.071533,413.757568 338.661682,423.149750 
	C339.126648,430.549652 338.415619,438.017914 338.367401,445.456696 
	C338.232605,466.248871 338.050598,487.041901 338.127045,507.833740 
	C338.169769,519.454773 338.994781,531.075623 338.934418,542.693787 
	C338.775177,573.338196 338.349579,603.981384 337.965729,634.624268 
	C337.903168,639.616272 337.838837,644.646667 337.195068,649.583679 
	C336.310150,656.370178 337.443481,661.744995 344.461792,664.713806 
	C346.188019,665.444031 347.364563,667.399841 348.917664,668.636597 
	C350.167938,669.632141 351.547394,670.505859 352.971558,671.234131 
	C355.896057,672.729553 358.996429,673.905823 361.830444,675.548157 
	C367.146088,678.628540 372.128357,682.350037 377.630646,685.018616 
	C381.072937,686.688171 385.212097,686.920837 389.737885,687.848145 
	C390.198181,687.928894 390.658447,688.009644 391.739136,688.295349 
	C393.791992,687.545471 396.151245,687.212524 397.842072,685.969971 
	C403.657715,681.695862 409.231689,677.093506 414.921234,672.646301 
	C415.568878,672.140015 416.322052,671.620056 417.100250,671.455200 
	C420.607513,670.711975 422.945770,668.574036 425.659973,666.266052 
	C428.805817,663.591064 432.559479,661.781494 434.752991,657.912598 
	C435.340363,656.876526 437.301331,656.276001 438.708099,656.105713 
	C445.728851,655.255310 452.775757,654.621887 459.811279,653.891235 
	C460.634033,653.805786 461.735596,653.864868 462.193787,653.375610 
	C462.975800,652.540466 464.102631,650.882812 463.781311,650.334473 
	C459.964111,643.820618 463.582245,641.918213 469.218750,640.942566 
	C470.488159,640.722839 471.611420,639.765442 472.869110,639.351746 
	C476.637329,638.112366 482.631744,641.069641 482.652008,644.537842 
	C482.675903,648.632751 483.040436,653.404785 481.166046,656.690125 
	C477.291168,663.481567 474.459259,670.234497 474.626740,678.129639 
	C474.671906,680.260803 474.503235,682.447021 474.041016,684.520691 
	C473.728119,685.924316 472.701874,687.161255 472.046570,688.498230 
	C471.275299,690.071838 469.712708,691.816650 469.954010,693.239502 
	C471.943604,704.971497 467.383209,715.662170 463.214264,725.747375 
	C460.923798,731.288391 458.727020,737.231201 455.738373,742.645081 
	C453.729187,746.284546 455.759521,749.513428 458.423859,751.314636 
	C459.738464,752.203369 463.053406,751.012146 465.000793,749.929932 
	C472.394623,745.821045 479.588654,741.353821 486.878052,737.055603 
	C494.847076,732.356750 502.490234,726.880066 510.930206,723.275696 
	C517.808228,720.338379 524.150330,713.716675 532.972839,717.423401 
	C533.423584,717.612854 534.289551,716.814026 535.255432,716.327637 
	C534.048889,714.571594 533.058533,713.130249 531.722168,711.185181 
	C533.473877,710.318787 534.870667,709.536499 536.336609,708.918152 
	C544.012634,705.680664 549.656067,700.873901 551.655701,692.174805 
	C553.812622,682.791565 556.787842,673.597717 559.351929,664.306335 
	C561.860229,655.216980 564.425171,646.139893 566.707336,636.993103 
	C567.586304,633.470459 569.202454,631.309937 572.957825,631.012878 
	C575.280334,630.829102 577.665894,630.758606 579.885376,630.141663 
	C582.291321,629.472900 584.548279,628.253357 586.849915,627.228455 
	C589.233826,626.166870 591.572876,625.003296 593.968445,623.969788 
	C596.827759,622.736084 599.761902,621.672180 602.597534,620.388550 
	C605.319946,619.156250 607.921143,617.656067 610.643799,616.424133 
	C613.080933,615.321594 614.816284,616.357361 614.765747,618.907349 
	C614.513672,631.637512 616.891785,644.549500 612.249939,657.009827 
	C611.833740,658.126892 612.076355,659.558228 612.248352,660.811279 
	C612.611023,663.453064 613.090027,666.081177 613.603943,668.698730 
	C613.812073,669.758972 613.993042,671.006042 614.664001,671.717957 
	C615.002258,672.076782 616.423950,671.489319 617.326294,671.227844 
	C620.270569,670.374695 623.175903,669.375000 626.143677,668.617126 
	C630.082947,667.611267 634.270508,666.398132 634.830933,661.856689 
	C635.260254,658.377808 637.283875,657.662537 639.725220,656.466675 
	C647.267761,652.771851 654.676331,648.804382 662.201721,645.073303 
	C665.998108,643.190918 670.043335,641.795715 673.779114,639.809692 
	C678.411560,637.346802 683.229980,634.950134 687.136902,631.565430 
	C688.436523,630.439514 687.067627,626.352539 687.095886,623.621094 
	C687.347046,599.319580 687.538513,575.016479 688.014954,550.719116 
	C688.094238,546.673096 686.929016,545.317383 682.978027,545.481689 
	C676.806824,545.738403 670.187256,543.753906 665.350281,549.646973 
	C665.080017,549.976257 664.405762,550.198486 663.970764,550.132568 
	C660.256958,549.569580 657.784790,551.075378 654.524414,553.180664 
	C647.979065,557.407166 640.157654,555.475037 631.680115,554.219360 
	C633.131470,553.089355 633.558472,552.622803 634.087341,552.366150 
	C638.635315,550.158997 646.387817,553.141479 646.928467,544.413269 
	C646.941589,544.200439 647.402893,543.944275 647.701721,543.830444 
	C654.509399,541.236572 661.259399,538.469116 668.159119,536.147095 
	C672.716431,534.613464 677.658447,534.141785 682.092407,532.359314 
	C684.113281,531.546875 686.359741,528.883057 686.701538,526.767700 
	C687.650024,520.896912 687.973816,514.872253 687.953430,508.910400 
	C687.923035,500.096741 687.301208,491.286652 687.103271,482.471191 
	C687.033691,479.371826 687.314270,475.647705 683.681091,475.149628 
	C681.025452,474.785583 677.978027,476.445312 675.261230,477.577148 
	C672.033508,478.921906 669.098755,481.033539 665.813660,482.163452 
	C658.929199,484.531372 651.582336,485.779175 645.008911,488.769623 
	C637.056213,492.387604 629.785400,497.366943 620.534851,497.418732 
	C614.212830,497.454132 607.362488,504.002258 606.998596,510.287476 
	C606.460205,519.586670 606.197510,528.906006 606.032104,538.220581 
	C605.959229,542.325317 604.808838,544.898010 600.175476,545.156555 
	C598.504639,545.249817 596.523010,546.083679 595.321289,547.241638 
	C587.947449,554.346924 587.645203,557.595886 593.094971,566.393555 
	C595.096375,569.624451 595.854675,572.828247 592.245056,575.925232 
z"/>
<path fill="#C69D66" opacity="1.000000" stroke="none" 
	d="
M391.118744,688.090454 
	C390.658447,688.009644 390.198181,687.928894 389.191772,687.559631 
	C373.926910,678.790955 359.254852,670.227844 344.455414,661.890869 
	C340.909882,659.893555 339.840027,657.336426 339.885498,653.403748 
	C340.226379,623.909973 340.462402,594.414307 340.563995,564.918640 
	C340.720673,519.425476 340.581207,473.930725 340.894714,428.438934 
	C341.045288,406.589508 350.128754,388.535950 366.009430,373.716553 
	C379.749878,360.894348 396.015503,352.215363 413.119202,344.973877 
	C445.864044,331.110291 479.943817,321.157806 513.923645,310.930206 
	C515.416138,310.480988 516.996704,310.324402 518.796082,309.982056 
	C519.020447,311.910828 519.296448,313.213196 519.305481,314.517365 
	C519.502136,342.845032 519.617493,371.173431 519.907532,399.500061 
	C519.943665,403.027802 518.152771,404.398315 515.376099,405.740631 
	C497.375916,414.442291 479.442719,423.282410 461.470917,432.043030 
	C459.600037,432.955017 457.620270,433.643524 454.743622,434.824768 
	C455.080719,429.559784 455.693939,425.272369 455.546082,421.011383 
	C455.340729,415.093903 455.254639,409.024628 453.840546,403.337830 
	C452.393768,397.519531 449.135193,396.400330 443.557343,398.643250 
	C436.452789,401.499969 429.446869,404.606079 422.433746,407.685150 
	C410.754517,412.812683 405.698364,421.553650 405.811676,434.528900 
	C406.216278,480.853607 406.031586,527.183472 406.065308,573.511353 
	C406.068817,578.343567 405.829834,583.186707 406.078003,588.005493 
	C406.472229,595.660889 412.616760,599.578308 419.616730,596.617004 
	C424.518829,594.543213 429.369141,592.269470 434.010895,589.671143 
	C454.765198,578.053528 458.785461,569.577271 454.323792,546.384766 
	C453.631775,542.787598 454.480347,540.679382 457.446136,538.965759 
	C475.899689,528.303711 494.319733,517.583496 512.803467,506.974152 
	C514.886658,505.778503 517.298950,505.156403 520.302612,503.975922 
	C519.154663,520.464722 518.065369,536.111145 516.907471,552.743591 
	C540.245789,538.309998 564.017456,527.436584 588.759521,515.870239 
	C588.457825,518.688293 588.468811,520.149841 588.128662,521.524536 
	C584.048157,538.017334 580.077332,554.541260 575.620056,570.932556 
	C574.960510,573.357788 572.304321,575.779968 569.954590,577.125793 
	C528.335144,600.963257 486.202148,623.938721 445.111298,648.648926 
	C426.087311,660.089172 409.054352,674.840332 391.118744,688.090454 
z"/>
<path fill="#C69D65" opacity="1.000000" stroke="none" 
	d="
M607.009460,289.014526 
	C607.460205,288.992157 607.910950,288.969788 609.072388,288.802124 
	C613.375610,287.930481 616.950989,287.103149 620.563293,286.494507 
	C640.266663,283.174896 659.993103,279.989868 679.677856,276.564240 
	C684.228577,275.772278 685.133057,277.597412 684.939087,281.611481 
	C684.633484,287.932770 684.645569,294.272980 684.648560,300.605133 
	C684.671265,349.102325 684.662537,397.599731 684.857788,446.096313 
	C684.878662,451.287903 683.279297,453.407227 678.045837,454.897217 
	C659.956543,460.047241 642.095642,465.998688 624.142578,471.628510 
	C622.641968,472.099091 621.102783,472.446594 618.883972,473.036865 
	C617.940308,455.812683 617.036560,439.318085 616.132874,422.823486 
	C614.629578,424.268799 613.998169,425.762299 613.521118,427.303558 
	C608.151489,444.649170 602.724426,461.977844 597.515991,479.371887 
	C596.362244,483.225006 594.289490,485.489990 590.566284,487.086761 
	C571.734558,495.163269 553.017395,503.506744 534.244751,511.721710 
	C532.227722,512.604370 530.111938,513.261230 527.166992,514.344727 
	C527.807190,511.149200 528.105347,509.037537 528.657654,506.994598 
	C547.441711,437.517670 566.268188,368.052216 584.998901,298.560913 
	C585.908020,295.188049 587.678284,293.606903 591.027710,292.928558 
	C596.398926,291.840820 601.686523,290.340454 607.009460,289.014526 
z"/>
<path fill="#3D4748" opacity="1.000000" stroke="none" 
	d="
M606.650208,288.890747 
	C601.686523,290.340454 596.398926,291.840820 591.027710,292.928558 
	C587.678284,293.606903 585.908020,295.188049 584.998901,298.560913 
	C566.268188,368.052216 547.441711,437.517670 528.657654,506.994598 
	C528.105347,509.037537 527.807190,511.149200 527.166992,514.344727 
	C530.111938,513.261230 532.227722,512.604370 534.244751,511.721710 
	C553.017395,503.506744 571.734558,495.163269 590.566284,487.086761 
	C594.289490,485.489990 596.362244,483.225006 597.515991,479.371887 
	C602.724426,461.977844 608.151489,444.649170 613.521118,427.303558 
	C613.998169,425.762299 614.629578,424.268799 616.132874,422.823486 
	C617.036560,439.318085 617.940308,455.812683 618.883972,473.036865 
	C621.102783,472.446594 622.641968,472.099091 624.142578,471.628510 
	C642.095642,465.998688 659.956543,460.047241 678.045837,454.897217 
	C683.279297,453.407227 684.878662,451.287903 684.857788,446.096313 
	C684.662537,397.599731 684.671265,349.102325 684.648560,300.605133 
	C684.645569,294.272980 684.633484,287.932770 684.939087,281.611481 
	C685.133057,277.597412 684.228577,275.772278 679.677856,276.564240 
	C659.993103,279.989868 640.266663,283.174896 620.563293,286.494507 
	C616.950989,287.103149 613.375610,287.930481 609.387573,288.673584 
	C610.692932,284.034119 614.493835,282.811432 618.914673,282.694244 
	C625.227966,282.526855 631.593445,282.955200 636.463379,277.437469 
	C637.345215,276.438354 640.111023,276.949402 641.997131,277.022125 
	C645.524536,277.158142 649.401855,278.560974 652.502197,277.532776 
	C662.620544,274.177216 673.012451,273.797821 683.440735,273.161102 
	C686.684814,272.963013 687.805969,274.044922 687.762207,277.412079 
	C687.414001,304.226654 687.086182,331.043213 687.047180,357.859589 
	C687.013306,381.129639 687.395996,404.400055 687.528442,427.670685 
	C687.571960,435.321014 687.338440,442.972870 687.373840,450.623352 
	C687.388367,453.763733 686.244629,455.393829 683.037476,456.217285 
	C673.023132,458.788544 663.089783,461.676025 653.127686,464.450043 
	C652.487793,464.628204 651.581604,464.689850 651.283813,465.131989 
	C645.831604,473.229004 636.116577,469.697510 629.088257,473.357788 
	C626.126404,474.900269 623.157776,476.652374 620.691956,478.865906 
	C617.860413,481.407715 614.312439,480.585236 611.869934,476.408142 
	C609.930786,473.092010 607.813538,469.880096 605.185181,465.678497 
	C602.791931,472.301239 601.009216,477.616974 598.921875,482.810303 
	C598.156494,484.714569 597.066956,487.073303 595.440491,487.941010 
	C589.737671,490.983307 583.743896,493.482483 577.846436,496.156738 
	C573.492737,498.130981 569.081238,499.980682 564.759155,502.020813 
	C557.009399,505.678955 549.276123,509.375000 541.598145,513.180725 
	C537.354614,515.284180 533.185791,517.555176 529.108215,519.962219 
	C528.328186,520.422668 527.546875,522.078491 527.807068,522.815063 
	C528.172546,523.849792 529.389404,525.032837 530.454773,525.297852 
	C536.965088,526.917419 543.533081,528.306274 550.089661,529.736267 
	C550.718079,529.873352 551.570557,530.030212 552.030396,529.732300 
	C556.982239,526.524292 561.887878,523.244019 566.772339,519.933533 
	C567.444031,519.478333 567.834656,518.393555 568.520142,518.207520 
	C574.131470,516.684387 579.776306,514.186462 585.421936,514.157776 
	C592.960266,514.119385 594.593689,517.039185 592.269653,524.159485 
	C590.411621,529.852234 587.615173,535.219788 589.945435,541.485779 
	C590.181030,542.119202 588.615356,543.383057 587.952881,544.398254 
	C586.611145,546.454346 584.423523,548.436951 584.168579,550.633667 
	C583.414307,557.133606 583.430725,563.723022 582.836548,570.885620 
	C580.627441,574.068481 578.727478,576.643188 576.661377,579.443054 
	C577.438904,579.858521 579.382507,580.897034 581.688354,582.129150 
	C582.716370,578.571228 584.102356,576.727356 587.874329,577.955688 
	C589.229126,578.396790 591.274353,576.717529 593.004517,576.006042 
	C595.854675,572.828247 595.096375,569.624451 593.094971,566.393555 
	C587.645203,557.595886 587.947449,554.346924 595.321289,547.241638 
	C596.523010,546.083679 598.504639,545.249817 600.175476,545.156555 
	C604.808838,544.898010 605.959229,542.325317 606.032104,538.220581 
	C606.197510,528.906006 606.460205,519.586670 606.998596,510.287476 
	C607.362488,504.002258 614.212830,497.454132 620.534851,497.418732 
	C629.785400,497.366943 637.056213,492.387604 645.008911,488.769623 
	C651.582336,485.779175 658.929199,484.531372 665.813660,482.163452 
	C669.098755,481.033539 672.033508,478.921906 675.261230,477.577148 
	C677.978027,476.445312 681.025452,474.785583 683.681091,475.149628 
	C687.314270,475.647705 687.033691,479.371826 687.103271,482.471191 
	C687.301208,491.286652 687.923035,500.096741 687.953430,508.910400 
	C687.973816,514.872253 687.650024,520.896912 686.701538,526.767700 
	C686.359741,528.883057 684.113281,531.546875 682.092407,532.359314 
	C677.658447,534.141785 672.716431,534.613464 668.159119,536.147095 
	C661.259399,538.469116 654.509399,541.236572 647.701721,543.830444 
	C647.402893,543.944275 646.941589,544.200439 646.928467,544.413269 
	C646.387817,553.141479 638.635315,550.158997 634.087341,552.366150 
	C633.558472,552.622803 633.131470,553.089355 631.680115,554.219360 
	C640.157654,555.475037 647.979065,557.407166 654.524414,553.180664 
	C657.784790,551.075378 660.256958,549.569580 663.970764,550.132568 
	C664.405762,550.198486 665.080017,549.976257 665.350281,549.646973 
	C670.187256,543.753906 676.806824,545.738403 682.978027,545.481689 
	C686.929016,545.317383 688.094238,546.673096 688.014954,550.719116 
	C687.538513,575.016479 687.347046,599.319580 687.095886,623.621094 
	C687.067627,626.352539 688.436523,630.439514 687.136902,631.565430 
	C683.229980,634.950134 678.411560,637.346802 673.779114,639.809692 
	C670.043335,641.795715 665.998108,643.190918 662.201721,645.073303 
	C654.676331,648.804382 647.267761,652.771851 639.725220,656.466675 
	C637.283875,657.662537 635.260254,658.377808 634.830933,661.856689 
	C634.270508,666.398132 630.082947,667.611267 626.143677,668.617126 
	C623.175903,669.375000 620.270569,670.374695 617.326294,671.227844 
	C616.423950,671.489319 615.002258,672.076782 614.664001,671.717957 
	C613.993042,671.006042 613.812073,669.758972 613.603943,668.698730 
	C613.090027,666.081177 612.611023,663.453064 612.248352,660.811279 
	C612.076355,659.558228 611.833740,658.126892 612.249939,657.009827 
	C616.891785,644.549500 614.513672,631.637512 614.765747,618.907349 
	C614.816284,616.357361 613.080933,615.321594 610.643799,616.424133 
	C607.921143,617.656067 605.319946,619.156250 602.597534,620.388550 
	C599.761902,621.672180 596.827759,622.736084 593.968445,623.969788 
	C591.572876,625.003296 589.233826,626.166870 586.849915,627.228455 
	C584.548279,628.253357 582.291321,629.472900 579.885376,630.141663 
	C577.665894,630.758606 575.280334,630.829102 572.957825,631.012878 
	C569.202454,631.309937 567.586304,633.470459 566.707336,636.993103 
	C564.425171,646.139893 561.860229,655.216980 559.351929,664.306335 
	C556.787842,673.597717 553.812622,682.791565 551.655701,692.174805 
	C549.656067,700.873901 544.012634,705.680664 536.336609,708.918152 
	C534.870667,709.536499 533.473877,710.318787 531.722168,711.185181 
	C533.058533,713.130249 534.048889,714.571594 535.255432,716.327637 
	C534.289551,716.814026 533.423584,717.612854 532.972839,717.423401 
	C524.150330,713.716675 517.808228,720.338379 510.930206,723.275696 
	C502.490234,726.880066 494.847076,732.356750 486.878052,737.055603 
	C479.588654,741.353821 472.394623,745.821045 465.000793,749.929932 
	C463.053406,751.012146 459.738464,752.203369 458.423859,751.314636 
	C455.759521,749.513428 453.729187,746.284546 455.738373,742.645081 
	C458.727020,737.231201 460.923798,731.288391 463.214264,725.747375 
	C467.383209,715.662170 471.943604,704.971497 469.954010,693.239502 
	C469.712708,691.816650 471.275299,690.071838 472.046570,688.498230 
	C472.701874,687.161255 473.728119,685.924316 474.041016,684.520691 
	C474.503235,682.447021 474.671906,680.260803 474.626740,678.129639 
	C474.459259,670.234497 477.291168,663.481567 481.166046,656.690125 
	C483.040436,653.404785 482.675903,648.632751 482.652008,644.537842 
	C482.631744,641.069641 476.637329,638.112366 472.869110,639.351746 
	C471.611420,639.765442 470.488159,640.722839 469.218750,640.942566 
	C463.582245,641.918213 459.964111,643.820618 463.781311,650.334473 
	C464.102631,650.882812 462.975800,652.540466 462.193787,653.375610 
	C461.735596,653.864868 460.634033,653.805786 459.811279,653.891235 
	C452.775757,654.621887 445.728851,655.255310 438.708099,656.105713 
	C437.301331,656.276001 435.340363,656.876526 434.752991,657.912598 
	C432.559479,661.781494 428.805817,663.591064 425.659973,666.266052 
	C422.945770,668.574036 420.607513,670.711975 417.100250,671.455200 
	C416.322052,671.620056 415.568878,672.140015 414.921234,672.646301 
	C409.231689,677.093506 403.657715,681.695862 397.842072,685.969971 
	C396.151245,687.212524 393.791992,687.545471 391.428955,688.192871 
	C409.054352,674.840332 426.087311,660.089172 445.111298,648.648926 
	C486.202148,623.938721 528.335144,600.963257 569.954590,577.125793 
	C572.304321,575.779968 574.960510,573.357788 575.620056,570.932556 
	C580.077332,554.541260 584.048157,538.017334 588.128662,521.524536 
	C588.468811,520.149841 588.457825,518.688293 588.759521,515.870239 
	C564.017456,527.436584 540.245789,538.309998 516.907471,552.743591 
	C518.065369,536.111145 519.154663,520.464722 520.302612,503.975922 
	C517.298950,505.156403 514.886658,505.778503 512.803467,506.974152 
	C494.319733,517.583496 475.899689,528.303711 457.446136,538.965759 
	C454.480347,540.679382 453.631775,542.787598 454.323792,546.384766 
	C458.785461,569.577271 454.765198,578.053528 434.010895,589.671143 
	C429.369141,592.269470 424.518829,594.543213 419.616730,596.617004 
	C412.616760,599.578308 406.472229,595.660889 406.078003,588.005493 
	C405.829834,583.186707 406.068817,578.343567 406.065308,573.511353 
	C406.031586,527.183472 406.216278,480.853607 405.811676,434.528900 
	C405.698364,421.553650 410.754517,412.812683 422.433746,407.685150 
	C429.446869,404.606079 436.452789,401.499969 443.557343,398.643250 
	C449.135193,396.400330 452.393768,397.519531 453.840546,403.337830 
	C455.254639,409.024628 455.340729,415.093903 455.546082,421.011383 
	C455.693939,425.272369 455.080719,429.559784 454.743622,434.824768 
	C457.620270,433.643524 459.600037,432.955017 461.470917,432.043030 
	C479.442719,423.282410 497.375916,414.442291 515.376099,405.740631 
	C518.152771,404.398315 519.943665,403.027802 519.907532,399.500061 
	C519.617493,371.173431 519.502136,342.845032 519.305481,314.517365 
	C519.296448,313.213196 519.020447,311.910828 518.796082,309.982056 
	C516.996704,310.324402 515.416138,310.480988 513.923645,310.930206 
	C479.943817,321.157806 445.864044,331.110291 413.119202,344.973877 
	C396.015503,352.215363 379.749878,360.894348 366.009430,373.716553 
	C350.128754,388.535950 341.045288,406.589508 340.894714,428.438934 
	C340.581207,473.930725 340.720673,519.425476 340.563995,564.918640 
	C340.462402,594.414307 340.226379,623.909973 339.885498,653.403748 
	C339.840027,657.336426 340.909882,659.893555 344.455414,661.890869 
	C359.254852,670.227844 373.926910,678.790955 388.842133,687.534668 
	C385.212097,686.920837 381.072937,686.688171 377.630646,685.018616 
	C372.128357,682.350037 367.146088,678.628540 361.830444,675.548157 
	C358.996429,673.905823 355.896057,672.729553 352.971558,671.234131 
	C351.547394,670.505859 350.167938,669.632141 348.917664,668.636597 
	C347.364563,667.399841 346.188019,665.444031 344.461792,664.713806 
	C337.443481,661.744995 336.310150,656.370178 337.195068,649.583679 
	C337.838837,644.646667 337.903168,639.616272 337.965729,634.624268 
	C338.349579,603.981384 338.775177,573.338196 338.934418,542.693787 
	C338.994781,531.075623 338.169769,519.454773 338.127045,507.833740 
	C338.050598,487.041901 338.232605,466.248871 338.367401,445.456696 
	C338.415619,438.017914 339.126648,430.549652 338.661682,423.149750 
	C338.071533,413.757568 342.289551,405.666138 344.638184,397.079620 
	C345.351868,394.470459 347.330261,392.197266 348.783478,389.803009 
	C350.493683,386.985321 352.002106,383.991119 354.067230,381.455627 
	C357.168793,377.647491 360.493408,373.975983 364.061432,370.604248 
	C368.490051,366.419220 371.594452,360.918121 378.989349,359.939667 
	C383.212494,359.380890 386.948364,355.128693 390.897156,352.529663 
	C391.171143,352.349365 391.564819,352.118011 391.610962,351.858490 
	C392.751465,345.445221 397.635712,346.996521 402.063995,346.126770 
	C406.535828,345.248535 410.516510,341.906891 414.736694,339.690735 
	C416.314667,338.862122 417.901031,337.714691 419.587585,337.488647 
	C425.320129,336.720306 431.437531,337.116272 434.344116,330.356018 
	C434.610809,329.735718 436.599213,329.726746 437.800293,329.662720 
	C440.713837,329.507507 443.731232,329.922974 446.528137,329.302795 
	C450.061951,328.519226 453.496368,326.991058 451.251373,321.906433 
	C452.443085,321.654480 453.323395,321.165497 453.978577,321.376251 
	C461.312531,323.735687 468.448090,322.870697 475.455505,320.146973 
	C477.380127,319.398834 479.095581,318.094849 481.035034,317.406616 
	C484.113770,316.314087 487.353943,315.673309 490.424103,314.560760 
	C492.893402,313.665894 495.219421,312.370667 497.593018,311.220001 
	C498.285767,310.884186 498.876648,310.268097 499.594574,310.065948 
	C503.469513,308.975037 507.323975,307.715820 511.274261,307.015656 
	C515.100281,306.337555 519.031860,306.153259 522.923035,306.083130 
	C523.368835,306.075073 524.554504,308.515991 524.206421,309.276367 
	C521.802002,314.529205 520.575745,319.031006 525.484314,324.137360 
	C527.238220,325.961975 526.084656,330.961639 525.626587,334.428650 
	C525.141479,338.100037 523.178589,341.660461 523.120056,345.289642 
	C522.841187,362.582489 523.001587,379.882263 522.981140,397.179565 
	C522.975220,402.191254 522.379333,406.821289 516.857056,409.200195 
	C515.647095,409.721405 515.083496,411.743011 513.771362,411.774261 
	C508.303497,413.594666 502.781799,415.274750 497.406342,417.336121 
	C496.095093,417.838898 494.436646,419.540497 494.358276,420.780640 
	C494.058167,425.530060 490.744659,425.023438 487.607513,425.525696 
	C485.356201,425.886108 483.212646,427.000275 481.059235,427.872467 
	C477.901520,429.151459 474.739410,430.431641 471.650696,431.865387 
	C468.587463,433.287323 465.681274,435.061371 462.578094,436.379272 
	C460.014221,437.468018 456.902374,439.335724 454.679199,438.677399 
	C451.255890,437.663635 452.027100,433.981750 451.886047,430.658447 
	C451.503693,421.648560 454.274323,412.346893 450.040558,403.634827 
	C448.229797,399.908752 445.004944,400.766357 442.309998,402.060760 
	C436.966705,404.627106 432.108337,408.791229 426.529449,410.133667 
	C419.166779,411.905365 415.484711,414.964996 416.331512,422.747894 
	C416.411957,423.487396 414.597839,425.181458 413.707397,425.150848 
	C409.463562,425.004822 409.154175,427.857605 409.124573,430.774261 
	C409.023102,440.770325 409.048035,450.767883 409.071014,460.764740 
	C409.073273,461.743744 409.039490,463.126038 409.622223,463.636871 
	C414.425262,467.847137 412.934387,473.438049 412.947052,478.588409 
	C413.030701,512.580200 413.042206,546.572632 412.884277,580.563965 
	C412.871552,583.309082 411.219147,586.012329 410.713715,588.804749 
	C410.484497,590.071167 410.730743,592.059387 411.567596,592.768066 
	C414.484619,595.238464 423.157379,593.645020 425.294861,590.419312 
	C425.767822,589.705566 425.865051,588.538818 425.716187,587.650940 
	C424.906647,582.822571 426.087677,581.105469 430.737213,580.393250 
	C435.559601,579.654602 440.547333,579.341003 445.098236,577.779358 
	C447.157623,577.072693 448.628235,573.949097 449.825714,571.641602 
	C450.887543,569.595642 451.304291,567.184326 451.813721,564.891663 
	C452.236267,562.989929 452.733063,560.997498 452.579376,559.095154 
	C452.123474,553.453796 451.169037,547.848083 450.849457,542.203491 
	C450.763947,540.693787 451.847229,538.510193 453.094116,537.644714 
	C457.096649,534.866638 461.517639,532.696594 465.573883,529.987549 
	C466.751526,529.200989 467.981995,527.356995 467.918640,526.059692 
	C467.719421,521.981934 470.191467,520.782471 473.227234,521.212280 
	C483.179840,522.621338 490.117584,516.311584 496.748230,511.083344 
	C500.369110,508.228302 502.975403,506.252228 507.648041,506.124817 
	C509.591309,506.071777 511.513885,502.898041 513.318420,501.020905 
	C514.371338,499.925568 515.021973,497.803528 516.131165,497.590881 
	C517.142395,497.396973 518.891052,498.915283 519.675781,500.101562 
	C521.515381,502.882629 523.317749,502.569000 525.371094,500.587921 
	C529.510498,496.594269 530.719055,491.714600 530.381592,486.041504 
	C530.208008,483.123474 530.883911,479.965607 531.951660,477.217499 
	C532.973022,474.588776 533.669739,472.664459 530.911072,470.741516 
	C529.985840,470.096588 529.628235,468.637360 529.011169,467.550293 
	C530.215393,466.877045 531.402832,465.667938 532.627014,465.629364 
	C536.560486,465.505493 537.579834,463.328888 537.985718,459.865875 
	C538.874268,452.286591 540.090881,444.745300 541.216858,437.194977 
	C541.336670,436.391235 541.515930,435.209137 542.054688,434.917419 
	C545.771667,432.904572 545.685486,429.025696 547.000366,425.758972 
	C548.743408,421.428375 551.417847,417.273834 544.019592,414.374329 
	C546.418579,412.349670 547.858093,410.813080 549.586609,409.743530 
	C553.087341,407.577484 554.356018,404.983643 552.624268,400.944885 
	C552.089539,399.697784 552.375183,397.760651 552.954956,396.431549 
	C555.708191,390.119354 559.351624,384.365295 559.720093,376.952332 
	C560.005249,371.217743 562.886841,365.649689 564.138550,359.903992 
	C564.538818,358.066559 564.044006,355.352020 562.861572,353.994202 
	C560.410522,351.179413 561.080017,349.607727 563.992981,348.292786 
	C569.013672,346.026306 570.402893,341.538422 571.678162,336.727051 
	C574.943481,324.408081 578.493042,312.164764 581.837280,299.866272 
	C583.478760,293.829559 584.857544,288.199707 593.537292,289.768616 
	C597.595581,290.502136 602.028076,289.165436 606.650208,288.890747 
M685.042603,564.503296 
	C685.042603,559.213257 685.042603,553.923157 685.042603,547.695312 
	C681.037781,548.725159 677.847961,549.412720 674.739258,550.365173 
	C641.261292,560.622375 609.738525,575.532166 578.767334,591.558716 
	C555.445435,603.627075 532.640869,616.697388 509.646362,629.394775 
	C503.432739,632.825867 497.278198,636.384094 491.281128,640.175903 
	C489.303345,641.426453 486.913116,643.342102 486.392365,645.382629 
	C477.949799,678.463745 469.776154,711.613403 461.551880,744.750183 
	C461.215973,746.103577 460.979919,747.481750 460.667969,748.990356 
	C461.485718,748.923828 461.867615,749.002869 462.118042,748.856750 
	C489.166382,733.069946 516.226990,717.303711 543.189026,701.370605 
	C544.804749,700.415894 546.177856,698.284302 546.735413,696.422302 
	C553.043701,675.355652 559.089905,654.210205 565.480347,633.169006 
	C566.069763,631.228333 568.248840,629.084167 570.187866,628.350159 
	C583.411621,623.344177 596.764221,618.677856 610.087646,613.936768 
	C612.184814,613.190491 614.344666,612.620605 617.421387,611.679993 
	C617.421387,629.746094 617.421387,646.909973 617.421387,664.756348 
	C619.653198,663.726257 621.012817,663.166138 622.311462,662.489197 
	C641.962036,652.246643 661.575134,641.931396 681.281921,631.798279 
	C684.116638,630.340759 684.916138,628.486389 684.910889,625.500122 
	C684.875488,605.500916 684.981628,585.501526 685.042603,564.503296 
M652.263367,538.797424 
	C661.985413,535.358093 671.648071,531.733337 681.464355,528.588013 
	C684.570740,527.592651 684.649963,525.716187 684.661743,523.333923 
	C684.725891,510.339783 684.802429,497.345703 684.828918,484.351501 
	C684.831482,483.080902 684.521729,481.809631 684.332947,480.353241 
	C683.369568,480.353241 682.670898,480.177124 682.107361,480.378693 
	C661.583740,487.720154 641.045715,495.024445 620.618713,502.626678 
	C619.214722,503.149200 617.844910,505.926971 617.827942,507.669281 
	C617.696716,521.160583 617.889221,534.655273 618.023804,548.148560 
	C618.038025,549.576111 618.325012,551.000916 618.577942,553.248962 
	C629.963196,548.354980 640.756897,543.715332 652.263367,538.797424 
M607.204102,463.409424 
	C609.223083,464.887604 611.242126,466.365784 613.261108,467.843964 
	C614.112488,466.378296 615.696472,464.908203 615.687683,463.447754 
	C615.650696,457.341309 615.204590,451.232330 614.723877,445.138824 
	C614.649048,444.189758 613.617004,443.316162 613.027588,442.407684 
	C612.134460,443.213562 610.655518,443.889801 610.443726,444.846527 
	C609.130188,450.780762 608.101074,456.778015 607.204102,463.409424 
M614.994934,535.076782 
	C614.498962,530.781982 616.252014,526.097595 612.771057,521.188782 
	C609.109741,528.410828 613.293030,533.879761 614.487122,539.659058 
	C614.653198,538.408569 614.819214,537.158142 614.994934,535.076782 
M571.516113,587.832886 
	C572.160461,588.314087 572.836182,589.230896 573.442810,589.187317 
	C574.787598,589.090576 576.289124,588.773438 577.333862,588.009155 
	C577.792725,587.673462 577.477722,585.180237 577.195435,585.118347 
	C575.850830,584.823181 574.330261,584.786560 573.008667,585.151611 
	C572.311768,585.344055 571.894165,586.547424 571.516113,587.832886 
M618.535278,558.303589 
	C619.357849,558.313538 620.180359,558.323547 621.002930,558.333496 
	C620.584534,557.588745 620.166138,556.843994 619.747803,556.099243 
	C619.262512,556.699768 618.777222,557.300354 618.535278,558.303589 
M456.034760,649.815918 
	C456.640564,650.066162 457.246338,650.316406 457.852112,650.566711 
	C457.924744,650.274658 457.997375,649.982666 458.070007,649.690674 
	C457.459473,649.648560 456.848969,649.606384 456.034760,649.815918 
M613.425049,550.386230 
	C613.704834,550.166077 613.984619,549.945923 614.264404,549.725769 
	C614.057922,549.532471 613.851379,549.339233 613.644897,549.145935 
	C613.503540,549.491272 613.362244,549.836609 613.425049,550.386230 
M433.291138,585.804443 
	C432.842285,585.522156 432.397034,585.233459 431.935577,584.973572 
	C431.908203,584.958191 431.750732,585.173706 431.653778,585.281799 
	C432.138916,585.518860 432.624023,585.755920 433.291138,585.804443 
M599.064148,577.207825 
	C599.197937,577.396851 599.331726,577.585815 599.465515,577.774841 
	C599.567322,577.679077 599.669067,577.583313 599.770874,577.487549 
	C599.586365,577.347107 599.401855,577.206665 599.064148,577.207825 
M532.545166,537.268677 
	C532.184326,537.315857 531.822388,537.357422 531.466125,537.427673 
	C531.449280,537.431091 531.482971,537.690125 531.493164,537.830078 
	C531.847168,537.721130 532.201233,537.612183 532.545166,537.268677 
M525.643921,535.914185 
	C525.816895,536.063049 525.989868,536.211914 526.162903,536.360718 
	C526.225891,536.238281 526.288818,536.115845 526.351807,535.993408 
	C526.146667,535.905884 525.941467,535.818359 525.643921,535.914185 
M609.052551,559.663818 
	C608.988037,559.560974 608.923584,559.458069 608.859131,559.355225 
	C608.885193,559.454712 608.911255,559.554199 609.052551,559.663818 
M521.053406,545.667114 
	C520.987976,545.562927 520.922546,545.458679 520.857117,545.354492 
	C520.883606,545.455322 520.910034,545.556152 521.053406,545.667114 
M612.978821,562.028809 
	C612.978821,562.028809 612.953613,561.995605 612.978821,562.028809 
M521.961182,520.011047 
	C521.961182,520.011047 521.966553,519.969360 521.961182,520.011047 
z"/>
<path fill="#3D474C" opacity="1.000000" stroke="none" 
	d="
M592.624756,575.965637 
	C591.274353,576.717529 589.229126,578.396790 587.874329,577.955688 
	C584.102356,576.727356 582.716370,578.571228 581.688354,582.129150 
	C579.382507,580.897034 577.438904,579.858521 576.661377,579.443054 
	C578.727478,576.643188 580.627441,574.068481 582.760925,571.246216 
	C586.077942,572.640808 589.161499,574.283020 592.624756,575.965637 
z"/>
<path fill="#C59F65" opacity="1.000000" stroke="none" 
	d="
M685.042236,565.002747 
	C684.981628,585.501526 684.875488,605.500916 684.910889,625.500122 
	C684.916138,628.486389 684.116638,630.340759 681.281921,631.798279 
	C661.575134,641.931396 641.962036,652.246643 622.311462,662.489197 
	C621.012817,663.166138 619.653198,663.726257 617.421387,664.756348 
	C617.421387,646.909973 617.421387,629.746094 617.421387,611.679993 
	C614.344666,612.620605 612.184814,613.190491 610.087646,613.936768 
	C596.764221,618.677856 583.411621,623.344177 570.187866,628.350159 
	C568.248840,629.084167 566.069763,631.228333 565.480347,633.169006 
	C559.089905,654.210205 553.043701,675.355652 546.735413,696.422302 
	C546.177856,698.284302 544.804749,700.415894 543.189026,701.370605 
	C516.226990,717.303711 489.166382,733.069946 462.118042,748.856750 
	C461.867615,749.002869 461.485718,748.923828 460.667969,748.990356 
	C460.979919,747.481750 461.215973,746.103577 461.551880,744.750183 
	C469.776154,711.613403 477.949799,678.463745 486.392365,645.382629 
	C486.913116,643.342102 489.303345,641.426453 491.281128,640.175903 
	C497.278198,636.384094 503.432739,632.825867 509.646362,629.394775 
	C532.640869,616.697388 555.445435,603.627075 578.767334,591.558716 
	C609.738525,575.532166 641.261292,560.622375 674.739258,550.365173 
	C677.847961,549.412720 681.037781,548.725159 685.042603,547.695312 
	C685.042603,553.923157 685.042603,559.213257 685.042236,565.002747 
z"/>
<path fill="#C59D68" opacity="1.000000" stroke="none" 
	d="
M651.906982,538.936523 
	C640.756897,543.715332 629.963196,548.354980 618.577942,553.248962 
	C618.325012,551.000916 618.038025,549.576111 618.023804,548.148560 
	C617.889221,534.655273 617.696716,521.160583 617.827942,507.669281 
	C617.844910,505.926971 619.214722,503.149200 620.618713,502.626678 
	C641.045715,495.024445 661.583740,487.720154 682.107361,480.378693 
	C682.670898,480.177124 683.369568,480.353241 684.332947,480.353241 
	C684.521729,481.809631 684.831482,483.080902 684.828918,484.351501 
	C684.802429,497.345703 684.725891,510.339783 684.661743,523.333923 
	C684.649963,525.716187 684.570740,527.592651 681.464355,528.588013 
	C671.648071,531.733337 661.985413,535.358093 651.906982,538.936523 
z"/>
<path fill="#3E494D" opacity="1.000000" stroke="none" 
	d="
M607.090820,463.081909 
	C608.101074,456.778015 609.130188,450.780762 610.443726,444.846527 
	C610.655518,443.889801 612.134460,443.213562 613.027588,442.407654 
	C613.617004,443.316162 614.649048,444.189758 614.723877,445.138824 
	C615.204590,451.232330 615.650696,457.341309 615.687683,463.447754 
	C615.696472,464.908203 614.112488,466.378296 613.261108,467.843964 
	C611.242126,466.365784 609.223083,464.887604 607.090820,463.081909 
z"/>
<path fill="#3E494D" opacity="1.000000" stroke="none" 
	d="
M614.990112,535.492188 
	C614.819214,537.158142 614.653198,538.408569 614.487122,539.659058 
	C613.293030,533.879761 609.109741,528.410828 612.771057,521.188782 
	C616.252014,526.097595 614.498962,530.781982 614.990112,535.492188 
z"/>
<path fill="#3D474C" opacity="1.000000" stroke="none" 
	d="
M571.433289,587.563599 
	C571.894165,586.547424 572.311768,585.344055 573.008667,585.151611 
	C574.330261,584.786560 575.850830,584.823181 577.195435,585.118347 
	C577.477722,585.180237 577.792725,587.673462 577.333862,588.009155 
	C576.289124,588.773438 574.787598,589.090576 573.442810,589.187317 
	C572.836182,589.230896 572.160461,588.314087 571.433289,587.563599 
z"/>
<path fill="#3E494D" opacity="1.000000" stroke="none" 
	d="
M618.413635,558.102234 
	C618.777222,557.300354 619.262512,556.699768 619.747803,556.099243 
	C620.166138,556.843994 620.584534,557.588745 621.002930,558.333496 
	C620.180359,558.323547 619.357849,558.313538 618.413635,558.102234 
z"/>
<path fill="#3E494D" opacity="1.000000" stroke="none" 
	d="
M456.136597,649.690063 
	C456.848969,649.606384 457.459473,649.648560 458.070007,649.690674 
	C457.997375,649.982666 457.924744,650.274658 457.852112,650.566711 
	C457.246338,650.316406 456.640564,650.066162 456.136597,649.690063 
z"/>
<path fill="#3E494D" opacity="1.000000" stroke="none" 
	d="
M613.322998,550.284058 
	C613.362244,549.836609 613.503540,549.491272 613.644897,549.145935 
	C613.851379,549.339233 614.057922,549.532471 614.264404,549.725769 
	C613.984619,549.945923 613.704834,550.166077 613.322998,550.284058 
z"/>
<path fill="#3E494D" opacity="1.000000" stroke="none" 
	d="
M433.200134,585.898743 
	C432.624023,585.755920 432.138916,585.518860 431.653778,585.281799 
	C431.750732,585.173706 431.908203,584.958191 431.935577,584.973572 
	C432.397034,585.233459 432.842285,585.522156 433.200134,585.898743 
z"/>
<path fill="#3E494D" opacity="1.000000" stroke="none" 
	d="
M599.140747,577.137024 
	C599.401855,577.206665 599.586365,577.347107 599.770874,577.487549 
	C599.669067,577.583313 599.567322,577.679077 599.465515,577.774841 
	C599.331726,577.585815 599.197937,577.396851 599.140747,577.137024 
z"/>
<path fill="#3E494D" opacity="1.000000" stroke="none" 
	d="
M532.550232,537.385986 
	C532.201233,537.612183 531.847168,537.721130 531.493164,537.830078 
	C531.482971,537.690125 531.449280,537.431091 531.466125,537.427673 
	C531.822388,537.357422 532.184326,537.315857 532.550232,537.385986 
z"/>
<path fill="#3E494D" opacity="1.000000" stroke="none" 
	d="
M525.690125,535.822510 
	C525.941467,535.818359 526.146667,535.905884 526.351807,535.993408 
	C526.288818,536.115845 526.225891,536.238281 526.162903,536.360718 
	C525.989868,536.211914 525.816895,536.063049 525.690125,535.822510 
z"/>
<path fill="#3E494D" opacity="1.000000" stroke="none" 
	d="
M608.994995,559.658752 
	C608.911255,559.554199 608.885193,559.454712 608.859131,559.355225 
	C608.923584,559.458069 608.988037,559.560974 608.994995,559.658752 
z"/>
<path fill="#3E494D" opacity="1.000000" stroke="none" 
	d="
M520.994995,545.662048 
	C520.910034,545.556152 520.883606,545.455322 520.857117,545.354492 
	C520.922546,545.458679 520.987976,545.562927 520.994995,545.662048 
z"/>
<path fill="#3E494D" opacity="1.000000" stroke="none" 
	d="
M612.966187,562.012207 
	C612.953613,561.995605 612.978821,562.028809 612.966187,562.012207 
z"/>
<path fill="#3E494D" opacity="1.000000" stroke="none" 
	d="
M521.963867,519.990234 
	C521.966553,519.969360 521.961182,520.011047 521.963867,519.990234 
z"/>
</svg>