<svg xmlns="http://www.w3.org/2000/svg" version="1.1" xmlns:xlink="http://www.w3.org/1999/xlink" xmlns:svgjs="http://svgjs.dev/svgjs" width="1440" height="560" preserveAspectRatio="none" viewBox="0 0 1440 560">
    <g mask="url(&quot;#SvgjsMask1248&quot;)" fill="none">
        <rect width="1440" height="560" x="0" y="0" fill="rgba(237, 249, 237, 1)"></rect>
        <path d="M-88.95 351.83L-88.95 351.83" stroke="rgba(105, 148, 236, 1)" stroke-width="1.5"></path>
        <path d="M-88.95 351.83L-53.62 498.66" stroke="rgba(105, 148, 236, 1)" stroke-width="1.5"></path>
        <path d="M-88.95 351.83L110.17 350.33" stroke="rgba(105, 148, 236, 1)" stroke-width="1.5"></path>
        <path d="M-88.95 351.83L111.23 492.21" stroke="rgba(105, 148, 236, 1)" stroke-width="1.5"></path>
        <path d="M-53.62 498.66L-53.62 498.66" stroke="rgba(105, 148, 236, 1)" stroke-width="1.5"></path>
        <path d="M-53.62 498.66L111.23 492.21" stroke="rgba(105, 148, 236, 1)" stroke-width="1.5"></path>
        <path d="M-53.62 498.66L-69.13 683.71" stroke="rgba(105, 148, 236, 1)" stroke-width="1.5"></path>
        <path d="M-53.62 498.66L110.17 350.33" stroke="rgba(105, 148, 236, 1)" stroke-width="1.5"></path>
        <path d="M-69.13 683.71L-69.13 683.71" stroke="rgba(105, 148, 236, 1)" stroke-width="1.5"></path>
        <path d="M-69.13 683.71L101.5 697.62" stroke="rgba(105, 148, 236, 1)" stroke-width="1.5"></path>
        <path d="M-69.13 683.71L111.23 492.21" stroke="rgba(105, 148, 236, 1)" stroke-width="1.5"></path>
        <path d="M-69.13 683.71L200.54 646.2" stroke="rgba(105, 148, 236, 1)" stroke-width="1.5"></path>
        <path d="M-69.13 683.71L-88.95 351.83" stroke="rgba(105, 148, 236, 1)" stroke-width="1.5"></path>
        <path d="M110.17 350.33L110.17 350.33" stroke="rgba(105, 148, 236, 1)" stroke-width="1.5"></path>
        <path d="M110.17 350.33L245.13 389.09" stroke="rgba(105, 148, 236, 1)" stroke-width="1.5"></path>
        <path d="M110.17 350.33L111.23 492.21" stroke="rgba(105, 148, 236, 1)" stroke-width="1.5"></path>
        <path d="M111.23 492.21L111.23 492.21" stroke="rgba(105, 148, 236, 1)" stroke-width="1.5"></path>
        <path d="M111.23 492.21L228.64 502.27" stroke="rgba(105, 148, 236, 1)" stroke-width="1.5"></path>
        <path d="M101.5 697.62L101.5 697.62" stroke="rgba(105, 148, 236, 1)" stroke-width="1.5"></path>
        <path d="M101.5 697.62L200.54 646.2" stroke="rgba(105, 148, 236, 1)" stroke-width="1.5"></path>
        <path d="M245.13 389.09L245.13 389.09" stroke="rgba(105, 148, 236, 1)" stroke-width="1.5"></path>
        <path d="M245.13 389.09L228.64 502.27" stroke="rgba(105, 148, 236, 1)" stroke-width="1.5"></path>
        <path d="M245.13 389.09L363.93 371.89" stroke="rgba(105, 148, 236, 1)" stroke-width="1.5"></path>
        <path d="M228.64 502.27L228.64 502.27" stroke="rgba(105, 148, 236, 1)" stroke-width="1.5"></path>
        <path d="M228.64 502.27L200.54 646.2" stroke="rgba(105, 148, 236, 1)" stroke-width="1.5"></path>
        <path d="M228.64 502.27L412.2 511.89" stroke="rgba(105, 148, 236, 1)" stroke-width="1.5"></path>
        <path d="M200.54 646.2L200.54 646.2" stroke="rgba(105, 148, 236, 1)" stroke-width="1.5"></path>
        <path d="M200.54 646.2L111.23 492.21" stroke="rgba(105, 148, 236, 1)" stroke-width="1.5"></path>
        <path d="M200.54 646.2L388.61 686.98" stroke="rgba(105, 148, 236, 1)" stroke-width="1.5"></path>
        <path d="M200.54 646.2L412.2 511.89" stroke="rgba(105, 148, 236, 1)" stroke-width="1.5"></path>
        <path d="M363.93 371.89L363.93 371.89" stroke="rgba(105, 148, 236, 1)" stroke-width="1.5"></path>
        <path d="M363.93 371.89L412.2 511.89" stroke="rgba(105, 148, 236, 1)" stroke-width="1.5"></path>
        <path d="M363.93 371.89L228.64 502.27" stroke="rgba(105, 148, 236, 1)" stroke-width="1.5"></path>
        <path d="M363.93 371.89L549.97 492.21" stroke="rgba(105, 148, 236, 1)" stroke-width="1.5"></path>
        <path d="M363.93 371.89L110.17 350.33" stroke="rgba(105, 148, 236, 1)" stroke-width="1.5"></path>
        <path d="M412.2 511.89L412.2 511.89" stroke="rgba(105, 148, 236, 1)" stroke-width="1.5"></path>
        <path d="M412.2 511.89L549.97 492.21" stroke="rgba(105, 148, 236, 1)" stroke-width="1.5"></path>
        <path d="M412.2 511.89L497.9 648.69" stroke="rgba(105, 148, 236, 1)" stroke-width="1.5"></path>
        <path d="M388.61 686.98L388.61 686.98" stroke="rgba(105, 148, 236, 1)" stroke-width="1.5"></path>
        <path d="M388.61 686.98L497.9 648.69" stroke="rgba(105, 148, 236, 1)" stroke-width="1.5"></path>
        <path d="M388.61 686.98L412.2 511.89" stroke="rgba(105, 148, 236, 1)" stroke-width="1.5"></path>
        <path d="M549.97 492.21L549.97 492.21" stroke="rgba(105, 148, 236, 1)" stroke-width="1.5"></path>
        <path d="M549.97 492.21L665.47 412.44" stroke="rgba(105, 148, 236, 1)" stroke-width="1.5"></path>
        <path d="M549.97 492.21L497.9 648.69" stroke="rgba(105, 148, 236, 1)" stroke-width="1.5"></path>
        <path d="M549.97 492.21L648.37 661.96" stroke="rgba(105, 148, 236, 1)" stroke-width="1.5"></path>
        <path d="M497.9 648.69L497.9 648.69" stroke="rgba(105, 148, 236, 1)" stroke-width="1.5"></path>
        <path d="M497.9 648.69L648.37 661.96" stroke="rgba(105, 148, 236, 1)" stroke-width="1.5"></path>
        <path d="M665.47 412.44L665.47 412.44" stroke="rgba(105, 148, 236, 1)" stroke-width="1.5"></path>
        <path d="M665.47 412.44L843.58 406.43" stroke="rgba(105, 148, 236, 1)" stroke-width="1.5"></path>
        <path d="M665.47 412.44L648.37 661.96" stroke="rgba(105, 148, 236, 1)" stroke-width="1.5"></path>
        <path d="M665.47 412.44L412.2 511.89" stroke="rgba(105, 148, 236, 1)" stroke-width="1.5"></path>
        <path d="M665.47 412.44L497.9 648.69" stroke="rgba(105, 148, 236, 1)" stroke-width="1.5"></path>
        <path d="M648.37 661.96L648.37 661.96" stroke="rgba(105, 148, 236, 1)" stroke-width="1.5"></path>
        <path d="M648.37 661.96L823.17 691.42" stroke="rgba(105, 148, 236, 1)" stroke-width="1.5"></path>
        <path d="M846.6 108.1L846.6 108.1" stroke="rgba(105, 148, 236, 1)" stroke-width="1.5"></path>
        <path d="M846.6 108.1L983.66 227.12" stroke="rgba(105, 148, 236, 1)" stroke-width="1.5"></path>
        <path d="M843.58 406.43L843.58 406.43" stroke="rgba(105, 148, 236, 1)" stroke-width="1.5"></path>
        <path d="M843.58 406.43L991.47 397.12" stroke="rgba(105, 148, 236, 1)" stroke-width="1.5"></path>
        <path d="M843.58 406.43L1004.15 537.55" stroke="rgba(105, 148, 236, 1)" stroke-width="1.5"></path>
        <path d="M843.58 406.43L983.66 227.12" stroke="rgba(105, 148, 236, 1)" stroke-width="1.5"></path>
        <path d="M823.17 691.42L823.17 691.42" stroke="rgba(105, 148, 236, 1)" stroke-width="1.5"></path>
        <path d="M823.17 691.42L957.54 643.51" stroke="rgba(105, 148, 236, 1)" stroke-width="1.5"></path>
        <path d="M823.17 691.42L1004.15 537.55" stroke="rgba(105, 148, 236, 1)" stroke-width="1.5"></path>
        <path d="M823.17 691.42L843.58 406.43" stroke="rgba(105, 148, 236, 1)" stroke-width="1.5"></path>
        <path d="M823.17 691.42L1128.75 694.3" stroke="rgba(105, 148, 236, 1)" stroke-width="1.5"></path>
        <path d="M952.05 -108L952.05 -108" stroke="rgba(105, 148, 236, 1)" stroke-width="1.5"></path>
        <path d="M952.05 -108L1101.78 -79.39" stroke="rgba(105, 148, 236, 1)" stroke-width="1.5"></path>
        <path d="M952.05 -108L1129.39 50.71" stroke="rgba(105, 148, 236, 1)" stroke-width="1.5"></path>
        <path d="M952.05 -108L846.6 108.1" stroke="rgba(105, 148, 236, 1)" stroke-width="1.5"></path>
        <path d="M952.05 -108L1286.44 -91.07" stroke="rgba(105, 148, 236, 1)" stroke-width="1.5"></path>
        <path d="M952.05 -108L983.66 227.12" stroke="rgba(105, 148, 236, 1)" stroke-width="1.5"></path>
        <path d="M952.05 -108L1096.2 218.98" stroke="rgba(105, 148, 236, 1)" stroke-width="1.5"></path>
        <path d="M983.66 227.12L983.66 227.12" stroke="rgba(105, 148, 236, 1)" stroke-width="1.5"></path>
        <path d="M983.66 227.12L1096.2 218.98" stroke="rgba(105, 148, 236, 1)" stroke-width="1.5"></path>
        <path d="M983.66 227.12L991.47 397.12" stroke="rgba(105, 148, 236, 1)" stroke-width="1.5"></path>
        <path d="M983.66 227.12L1129.39 50.71" stroke="rgba(105, 148, 236, 1)" stroke-width="1.5"></path>
        <path d="M991.47 397.12L991.47 397.12" stroke="rgba(105, 148, 236, 1)" stroke-width="1.5"></path>
        <path d="M991.47 397.12L1004.15 537.55" stroke="rgba(105, 148, 236, 1)" stroke-width="1.5"></path>
        <path d="M991.47 397.12L1155.57 393.06" stroke="rgba(105, 148, 236, 1)" stroke-width="1.5"></path>
        <path d="M1004.15 537.55L1004.15 537.55" stroke="rgba(105, 148, 236, 1)" stroke-width="1.5"></path>
        <path d="M1004.15 537.55L957.54 643.51" stroke="rgba(105, 148, 236, 1)" stroke-width="1.5"></path>
        <path d="M1004.15 537.55L1128.75 694.3" stroke="rgba(105, 148, 236, 1)" stroke-width="1.5"></path>
        <path d="M1004.15 537.55L1155.57 393.06" stroke="rgba(105, 148, 236, 1)" stroke-width="1.5"></path>
        <path d="M957.54 643.51L957.54 643.51" stroke="rgba(105, 148, 236, 1)" stroke-width="1.5"></path>
        <path d="M957.54 643.51L1128.75 694.3" stroke="rgba(105, 148, 236, 1)" stroke-width="1.5"></path>
        <path d="M957.54 643.51L991.47 397.12" stroke="rgba(105, 148, 236, 1)" stroke-width="1.5"></path>
        <path d="M957.54 643.51L843.58 406.43" stroke="rgba(105, 148, 236, 1)" stroke-width="1.5"></path>
        <path d="M1101.78 -79.39L1101.78 -79.39" stroke="rgba(105, 148, 236, 1)" stroke-width="1.5"></path>
        <path d="M1101.78 -79.39L1129.39 50.71" stroke="rgba(105, 148, 236, 1)" stroke-width="1.5"></path>
        <path d="M1101.78 -79.39L1286.44 -91.07" stroke="rgba(105, 148, 236, 1)" stroke-width="1.5"></path>
        <path d="M1101.78 -79.39L1286.45 61.87" stroke="rgba(105, 148, 236, 1)" stroke-width="1.5"></path>
        <path d="M1101.78 -79.39L1397.34 -112.36" stroke="rgba(105, 148, 236, 1)" stroke-width="1.5"></path>
        <path d="M1101.78 -79.39L1096.2 218.98" stroke="rgba(105, 148, 236, 1)" stroke-width="1.5"></path>
        <path d="M1129.39 50.71L1129.39 50.71" stroke="rgba(105, 148, 236, 1)" stroke-width="1.5"></path>
        <path d="M1129.39 50.71L1286.45 61.87" stroke="rgba(105, 148, 236, 1)" stroke-width="1.5"></path>
        <path d="M1096.2 218.98L1096.2 218.98" stroke="rgba(105, 148, 236, 1)" stroke-width="1.5"></path>
        <path d="M1096.2 218.98L1129.39 50.71" stroke="rgba(105, 148, 236, 1)" stroke-width="1.5"></path>
        <path d="M1096.2 218.98L1155.57 393.06" stroke="rgba(105, 148, 236, 1)" stroke-width="1.5"></path>
        <path d="M1096.2 218.98L1294.14 259.22" stroke="rgba(105, 148, 236, 1)" stroke-width="1.5"></path>
        <path d="M1096.2 218.98L991.47 397.12" stroke="rgba(105, 148, 236, 1)" stroke-width="1.5"></path>
        <path d="M1096.2 218.98L1269.91 379.06" stroke="rgba(105, 148, 236, 1)" stroke-width="1.5"></path>
        <path d="M1155.57 393.06L1155.57 393.06" stroke="rgba(105, 148, 236, 1)" stroke-width="1.5"></path>
        <path d="M1155.57 393.06L1269.91 379.06" stroke="rgba(105, 148, 236, 1)" stroke-width="1.5"></path>
        <path d="M1128.75 694.3L1128.75 694.3" stroke="rgba(105, 148, 236, 1)" stroke-width="1.5"></path>
        <path d="M1128.75 694.3L1252.55 678.24" stroke="rgba(105, 148, 236, 1)" stroke-width="1.5"></path>
        <path d="M1286.44 -91.07L1286.44 -91.07" stroke="rgba(105, 148, 236, 1)" stroke-width="1.5"></path>
        <path d="M1286.44 -91.07L1397.34 -112.36" stroke="rgba(105, 148, 236, 1)" stroke-width="1.5"></path>
        <path d="M1286.44 -91.07L1286.45 61.87" stroke="rgba(105, 148, 236, 1)" stroke-width="1.5"></path>
        <path d="M1286.45 61.87L1286.45 61.87" stroke="rgba(105, 148, 236, 1)" stroke-width="1.5"></path>
        <path d="M1286.45 61.87L1418.68 82.25" stroke="rgba(105, 148, 236, 1)" stroke-width="1.5"></path>
        <path d="M1286.45 61.87L1294.14 259.22" stroke="rgba(105, 148, 236, 1)" stroke-width="1.5"></path>
        <path d="M1286.45 61.87L1397.34 -112.36" stroke="rgba(105, 148, 236, 1)" stroke-width="1.5"></path>
        <path d="M1294.14 259.22L1294.14 259.22" stroke="rgba(105, 148, 236, 1)" stroke-width="1.5"></path>
        <path d="M1294.14 259.22L1269.91 379.06" stroke="rgba(105, 148, 236, 1)" stroke-width="1.5"></path>
        <path d="M1294.14 259.22L1430 246.88" stroke="rgba(105, 148, 236, 1)" stroke-width="1.5"></path>
        <path d="M1294.14 259.22L1155.57 393.06" stroke="rgba(105, 148, 236, 1)" stroke-width="1.5"></path>
        <path d="M1269.91 379.06L1269.91 379.06" stroke="rgba(105, 148, 236, 1)" stroke-width="1.5"></path>
        <path d="M1269.91 379.06L1309.58 544.49" stroke="rgba(105, 148, 236, 1)" stroke-width="1.5"></path>
        <path d="M1269.91 379.06L1454.05 407.63" stroke="rgba(105, 148, 236, 1)" stroke-width="1.5"></path>
        <path d="M1269.91 379.06L1430 246.88" stroke="rgba(105, 148, 236, 1)" stroke-width="1.5"></path>
        <path d="M1269.91 379.06L1443.9 528.27" stroke="rgba(105, 148, 236, 1)" stroke-width="1.5"></path>
        <path d="M1309.58 544.49L1309.58 544.49" stroke="rgba(105, 148, 236, 1)" stroke-width="1.5"></path>
        <path d="M1309.58 544.49L1443.9 528.27" stroke="rgba(105, 148, 236, 1)" stroke-width="1.5"></path>
        <path d="M1309.58 544.49L1252.55 678.24" stroke="rgba(105, 148, 236, 1)" stroke-width="1.5"></path>
        <path d="M1309.58 544.49L1404.73 668.57" stroke="rgba(105, 148, 236, 1)" stroke-width="1.5"></path>
        <path d="M1309.58 544.49L1454.05 407.63" stroke="rgba(105, 148, 236, 1)" stroke-width="1.5"></path>
        <path d="M1252.55 678.24L1252.55 678.24" stroke="rgba(105, 148, 236, 1)" stroke-width="1.5"></path>
        <path d="M1252.55 678.24L1404.73 668.57" stroke="rgba(105, 148, 236, 1)" stroke-width="1.5"></path>
        <path d="M1252.55 678.24L1443.9 528.27" stroke="rgba(105, 148, 236, 1)" stroke-width="1.5"></path>
        <path d="M1252.55 678.24L1004.15 537.55" stroke="rgba(105, 148, 236, 1)" stroke-width="1.5"></path>
        <path d="M1397.34 -112.36L1397.34 -112.36" stroke="rgba(105, 148, 236, 1)" stroke-width="1.5"></path>
        <path d="M1397.34 -112.36L1586.35 -91.15" stroke="rgba(105, 148, 236, 1)" stroke-width="1.5"></path>
        <path d="M1397.34 -112.36L1418.68 82.25" stroke="rgba(105, 148, 236, 1)" stroke-width="1.5"></path>
        <path d="M1397.34 -112.36L1608.47 57.69" stroke="rgba(105, 148, 236, 1)" stroke-width="1.5"></path>
        <path d="M1418.68 82.25L1418.68 82.25" stroke="rgba(105, 148, 236, 1)" stroke-width="1.5"></path>
        <path d="M1418.68 82.25L1430 246.88" stroke="rgba(105, 148, 236, 1)" stroke-width="1.5"></path>
        <path d="M1418.68 82.25L1608.47 57.69" stroke="rgba(105, 148, 236, 1)" stroke-width="1.5"></path>
        <path d="M1430 246.88L1430 246.88" stroke="rgba(105, 148, 236, 1)" stroke-width="1.5"></path>
        <path d="M1430 246.88L1454.05 407.63" stroke="rgba(105, 148, 236, 1)" stroke-width="1.5"></path>
        <path d="M1454.05 407.63L1454.05 407.63" stroke="rgba(105, 148, 236, 1)" stroke-width="1.5"></path>
        <path d="M1454.05 407.63L1443.9 528.27" stroke="rgba(105, 148, 236, 1)" stroke-width="1.5"></path>
        <path d="M1443.9 528.27L1443.9 528.27" stroke="rgba(105, 148, 236, 1)" stroke-width="1.5"></path>
        <path d="M1443.9 528.27L1558.83 554.49" stroke="rgba(105, 148, 236, 1)" stroke-width="1.5"></path>
        <path d="M1404.73 668.57L1404.73 668.57" stroke="rgba(105, 148, 236, 1)" stroke-width="1.5"></path>
        <path d="M1404.73 668.57L1443.9 528.27" stroke="rgba(105, 148, 236, 1)" stroke-width="1.5"></path>
        <path d="M1404.73 668.57L1558.83 554.49" stroke="rgba(105, 148, 236, 1)" stroke-width="1.5"></path>
        <path d="M1404.73 668.57L1610.37 685.74" stroke="rgba(105, 148, 236, 1)" stroke-width="1.5"></path>
        <path d="M1404.73 668.57L1454.05 407.63" stroke="rgba(105, 148, 236, 1)" stroke-width="1.5"></path>
        <path d="M1586.35 -91.15L1586.35 -91.15" stroke="rgba(105, 148, 236, 1)" stroke-width="1.5"></path>
        <path d="M1586.35 -91.15L1608.47 57.69" stroke="rgba(105, 148, 236, 1)" stroke-width="1.5"></path>
        <path d="M1608.47 57.69L1608.47 57.69" stroke="rgba(105, 148, 236, 1)" stroke-width="1.5"></path>
        <path d="M1608.47 57.69L1593.94 208.5" stroke="rgba(105, 148, 236, 1)" stroke-width="1.5"></path>
        <path d="M1608.47 57.69L1430 246.88" stroke="rgba(105, 148, 236, 1)" stroke-width="1.5"></path>
        <path d="M1593.94 208.5L1593.94 208.5" stroke="rgba(105, 148, 236, 1)" stroke-width="1.5"></path>
        <path d="M1593.94 208.5L1596.12 343.77" stroke="rgba(105, 148, 236, 1)" stroke-width="1.5"></path>
        <path d="M1593.94 208.5L1430 246.88" stroke="rgba(105, 148, 236, 1)" stroke-width="1.5"></path>
        <path d="M1596.12 343.77L1596.12 343.77" stroke="rgba(105, 148, 236, 1)" stroke-width="1.5"></path>
        <path d="M1596.12 343.77L1454.05 407.63" stroke="rgba(105, 148, 236, 1)" stroke-width="1.5"></path>
        <path d="M1596.12 343.77L1430 246.88" stroke="rgba(105, 148, 236, 1)" stroke-width="1.5"></path>
        <path d="M1596.12 343.77L1558.83 554.49" stroke="rgba(105, 148, 236, 1)" stroke-width="1.5"></path>
        <path d="M1558.83 554.49L1558.83 554.49" stroke="rgba(105, 148, 236, 1)" stroke-width="1.5"></path>
        <path d="M1558.83 554.49L1610.37 685.74" stroke="rgba(105, 148, 236, 1)" stroke-width="1.5"></path>
        <path d="M1610.37 685.74L1610.37 685.74" stroke="rgba(105, 148, 236, 1)" stroke-width="1.5"></path>
        <path d="M1610.37 685.74L1443.9 528.27" stroke="rgba(105, 148, 236, 1)" stroke-width="1.5"></path>
        <path d="M1610.37 685.74L1454.05 407.63" stroke="rgba(105, 148, 236, 1)" stroke-width="1.5"></path>
        <path d="M1610.37 685.74L1309.58 544.49" stroke="rgba(105, 148, 236, 1)" stroke-width="1.5"></path>
        <circle r="5" cx="-88.95" cy="351.83" fill="rgba(105, 148, 236, 1)"></circle>
        <circle r="5" cx="-53.62" cy="498.66" fill="rgba(105, 148, 236, 1)"></circle>
        <circle r="5" cx="-69.13" cy="683.71" fill="rgba(105, 148, 236, 1)"></circle>
        <circle r="5" cx="110.17" cy="350.33" fill="rgba(105, 148, 236, 1)"></circle>
        <circle r="5" cx="111.23" cy="492.21" fill="rgba(105, 148, 236, 1)"></circle>
        <circle r="5" cx="101.5" cy="697.62" fill="rgba(105, 148, 236, 1)"></circle>
        <circle r="5" cx="245.13" cy="389.09" fill="rgba(105, 148, 236, 1)"></circle>
        <circle r="5" cx="228.64" cy="502.27" fill="rgba(105, 148, 236, 1)"></circle>
        <circle r="5" cx="200.54" cy="646.2" fill="rgba(105, 148, 236, 1)"></circle>
        <circle r="5" cx="363.93" cy="371.89" fill="rgba(105, 148, 236, 1)"></circle>
        <circle r="5" cx="412.2" cy="511.89" fill="rgba(105, 148, 236, 1)"></circle>
        <circle r="5" cx="388.61" cy="686.98" fill="rgba(105, 148, 236, 1)"></circle>
        <circle r="5" cx="549.97" cy="492.21" fill="rgba(105, 148, 236, 1)"></circle>
        <circle r="5" cx="497.9" cy="648.69" fill="rgba(105, 148, 236, 1)"></circle>
        <circle r="5" cx="665.47" cy="412.44" fill="rgba(105, 148, 236, 1)"></circle>
        <circle r="5" cx="648.37" cy="661.96" fill="rgba(105, 148, 236, 1)"></circle>
        <circle r="5" cx="846.6" cy="108.1" fill="rgba(105, 148, 236, 1)"></circle>
        <circle r="5" cx="843.58" cy="406.43" fill="rgba(105, 148, 236, 1)"></circle>
        <circle r="5" cx="823.17" cy="691.42" fill="rgba(105, 148, 236, 1)"></circle>
        <circle r="5" cx="952.05" cy="-108" fill="rgba(105, 148, 236, 1)"></circle>
        <circle r="5" cx="983.66" cy="227.12" fill="rgba(105, 148, 236, 1)"></circle>
        <circle r="5" cx="991.47" cy="397.12" fill="rgba(105, 148, 236, 1)"></circle>
        <circle r="5" cx="1004.15" cy="537.55" fill="rgba(105, 148, 236, 1)"></circle>
        <circle r="5" cx="957.54" cy="643.51" fill="rgba(105, 148, 236, 1)"></circle>
        <circle r="5" cx="1101.78" cy="-79.39" fill="rgba(105, 148, 236, 1)"></circle>
        <circle r="5" cx="1129.39" cy="50.71" fill="rgba(105, 148, 236, 1)"></circle>
        <circle r="5" cx="1096.2" cy="218.98" fill="rgba(105, 148, 236, 1)"></circle>
        <circle r="5" cx="1155.57" cy="393.06" fill="rgba(105, 148, 236, 1)"></circle>
        <circle r="5" cx="1128.75" cy="694.3" fill="rgba(105, 148, 236, 1)"></circle>
        <circle r="5" cx="1286.44" cy="-91.07" fill="rgba(105, 148, 236, 1)"></circle>
        <circle r="5" cx="1286.45" cy="61.87" fill="rgba(105, 148, 236, 1)"></circle>
        <circle r="5" cx="1294.14" cy="259.22" fill="rgba(105, 148, 236, 1)"></circle>
        <circle r="5" cx="1269.91" cy="379.06" fill="rgba(105, 148, 236, 1)"></circle>
        <circle r="5" cx="1309.58" cy="544.49" fill="rgba(105, 148, 236, 1)"></circle>
        <circle r="5" cx="1252.55" cy="678.24" fill="rgba(105, 148, 236, 1)"></circle>
        <circle r="5" cx="1397.34" cy="-112.36" fill="rgba(105, 148, 236, 1)"></circle>
        <circle r="5" cx="1418.68" cy="82.25" fill="rgba(105, 148, 236, 1)"></circle>
        <circle r="5" cx="1430" cy="246.88" fill="rgba(105, 148, 236, 1)"></circle>
        <circle r="5" cx="1454.05" cy="407.63" fill="rgba(105, 148, 236, 1)"></circle>
        <circle r="5" cx="1443.9" cy="528.27" fill="rgba(105, 148, 236, 1)"></circle>
        <circle r="5" cx="1404.73" cy="668.57" fill="rgba(105, 148, 236, 1)"></circle>
        <circle r="5" cx="1586.35" cy="-91.15" fill="rgba(105, 148, 236, 1)"></circle>
        <circle r="5" cx="1608.47" cy="57.69" fill="rgba(105, 148, 236, 1)"></circle>
        <circle r="5" cx="1593.94" cy="208.5" fill="rgba(105, 148, 236, 1)"></circle>
        <circle r="5" cx="1596.12" cy="343.77" fill="rgba(105, 148, 236, 1)"></circle>
        <circle r="5" cx="1558.83" cy="554.49" fill="rgba(105, 148, 236, 1)"></circle>
        <circle r="5" cx="1610.37" cy="685.74" fill="rgba(105, 148, 236, 1)"></circle>
        <path d="M-104.55 542.82L-104.55 542.82" stroke="hsl(275.1, 83.2%, 75.5%)" stroke-width="1.5"></path>
        <path d="M-104.55 542.82L-108.48 646.48" stroke="hsl(275.1, 83.2%, 75.5%)" stroke-width="1.5"></path>
        <path d="M-104.55 542.82L82.6 535.44" stroke="hsl(275.1, 83.2%, 75.5%)" stroke-width="1.5"></path>
        <path d="M-104.55 542.82L51.14 701.19" stroke="hsl(275.1, 83.2%, 75.5%)" stroke-width="1.5"></path>
        <path d="M-108.48 646.48L-108.48 646.48" stroke="hsl(275.1, 83.2%, 75.5%)" stroke-width="1.5"></path>
        <path d="M-108.48 646.48L51.14 701.19" stroke="hsl(275.1, 83.2%, 75.5%)" stroke-width="1.5"></path>
        <path d="M-108.48 646.48L82.6 535.44" stroke="hsl(275.1, 83.2%, 75.5%)" stroke-width="1.5"></path>
        <path d="M-108.48 646.48L221.9 556.95" stroke="hsl(275.1, 83.2%, 75.5%)" stroke-width="1.5"></path>
        <path d="M221.9 556.95L221.9 556.95" stroke="hsl(275.1, 83.2%, 75.5%)" stroke-width="1.5"></path>
        <path d="M221.9 556.95L82.6 535.44" stroke="hsl(275.1, 83.2%, 75.5%)" stroke-width="1.5"></path>
        <path d="M221.9 556.95L241.49 705.7" stroke="hsl(275.1, 83.2%, 75.5%)" stroke-width="1.5"></path>
        <path d="M221.9 556.95L405.78 544.07" stroke="hsl(275.1, 83.2%, 75.5%)" stroke-width="1.5"></path>
        <path d="M405.78 544.07L405.78 544.07" stroke="hsl(275.1, 83.2%, 75.5%)" stroke-width="1.5"></path>
        <path d="M405.78 544.07L509.1 506.8" stroke="hsl(275.1, 83.2%, 75.5%)" stroke-width="1.5"></path>
        <path d="M405.78 544.07L382.6 704.91" stroke="hsl(275.1, 83.2%, 75.5%)" stroke-width="1.5"></path>
        <path d="M405.78 544.07L494.95 681.74" stroke="hsl(275.1, 83.2%, 75.5%)" stroke-width="1.5"></path>
        <path d="M405.78 544.07L541.18 397.82" stroke="hsl(275.1, 83.2%, 75.5%)" stroke-width="1.5"></path>
        <path d="M704.84 697.03L704.84 697.03" stroke="hsl(275.1, 83.2%, 75.5%)" stroke-width="1.5"></path>
        <path d="M704.84 697.03L830.38 695.81" stroke="hsl(275.1, 83.2%, 75.5%)" stroke-width="1.5"></path>
        <path d="M704.84 697.03L678.7 546.12" stroke="hsl(275.1, 83.2%, 75.5%)" stroke-width="1.5"></path>
        <path d="M704.84 697.03L494.95 681.74" stroke="hsl(275.1, 83.2%, 75.5%)" stroke-width="1.5"></path>
        <path d="M704.84 697.03L815.9 509.7" stroke="hsl(275.1, 83.2%, 75.5%)" stroke-width="1.5"></path>
        <path d="M1132.69 108.5L1132.69 108.5" stroke="hsl(275.1, 83.2%, 75.5%)" stroke-width="1.5"></path>
        <path d="M1132.69 108.5L1151.1 198.18" stroke="hsl(275.1, 83.2%, 75.5%)" stroke-width="1.5"></path>
        <path d="M1132.69 108.5L1304.59 102.45" stroke="hsl(275.1, 83.2%, 75.5%)" stroke-width="1.5"></path>
        <path d="M1132.69 108.5L1155.72 -74.96" stroke="hsl(275.1, 83.2%, 75.5%)" stroke-width="1.5"></path>
        <path d="M1132.69 108.5L1294.95 224.01" stroke="hsl(275.1, 83.2%, 75.5%)" stroke-width="1.5"></path>
        <path d="M1132.69 108.5L1284.55 -99.16" stroke="hsl(275.1, 83.2%, 75.5%)" stroke-width="1.5"></path>
        <path d="M1132.69 108.5L1396.99 188.75" stroke="hsl(275.1, 83.2%, 75.5%)" stroke-width="1.5"></path>
        <path d="M1284.55 -99.16L1284.55 -99.16" stroke="hsl(275.1, 83.2%, 75.5%)" stroke-width="1.5"></path>
        <path d="M1284.55 -99.16L1155.72 -74.96" stroke="hsl(275.1, 83.2%, 75.5%)" stroke-width="1.5"></path>
        <path d="M1284.55 -99.16L1434.8 -63.02" stroke="hsl(275.1, 83.2%, 75.5%)" stroke-width="1.5"></path>
        <path d="M1284.55 -99.16L1304.59 102.45" stroke="hsl(275.1, 83.2%, 75.5%)" stroke-width="1.5"></path>
        <path d="M1284.55 -99.16L1432.75 65.59" stroke="hsl(275.1, 83.2%, 75.5%)" stroke-width="1.5"></path>
        <path d="M1264.64 517.11L1264.64 517.11" stroke="hsl(275.1, 83.2%, 75.5%)" stroke-width="1.5"></path>
        <path d="M1264.64 517.11L1147.72 551.28" stroke="hsl(275.1, 83.2%, 75.5%)" stroke-width="1.5"></path>
        <path d="M1264.64 517.11L1398.11 504.86" stroke="hsl(275.1, 83.2%, 75.5%)" stroke-width="1.5"></path>
        <path d="M1278.05 666.81L1278.05 666.81" stroke="hsl(275.1, 83.2%, 75.5%)" stroke-width="1.5"></path>
        <path d="M1278.05 666.81L1264.64 517.11" stroke="hsl(275.1, 83.2%, 75.5%)" stroke-width="1.5"></path>
        <path d="M1278.05 666.81L1125.36 708.93" stroke="hsl(275.1, 83.2%, 75.5%)" stroke-width="1.5"></path>
        <path d="M1278.05 666.81L1147.72 551.28" stroke="hsl(275.1, 83.2%, 75.5%)" stroke-width="1.5"></path>
        <path d="M1278.05 666.81L1451.8 702.5" stroke="hsl(275.1, 83.2%, 75.5%)" stroke-width="1.5"></path>
        <path d="M1434.8 -63.02L1434.8 -63.02" stroke="hsl(275.1, 83.2%, 75.5%)" stroke-width="1.5"></path>
        <path d="M1434.8 -63.02L1432.75 65.59" stroke="hsl(275.1, 83.2%, 75.5%)" stroke-width="1.5"></path>
        <path d="M1434.8 -63.02L1570.71 -99.82" stroke="hsl(275.1, 83.2%, 75.5%)" stroke-width="1.5"></path>
        <path d="M1434.8 -63.02L1567.31 52.96" stroke="hsl(275.1, 83.2%, 75.5%)" stroke-width="1.5"></path>
        <path d="M1434.8 -63.02L1304.59 102.45" stroke="hsl(275.1, 83.2%, 75.5%)" stroke-width="1.5"></path>
        <path d="M1434.8 -63.02L1396.99 188.75" stroke="hsl(275.1, 83.2%, 75.5%)" stroke-width="1.5"></path>
        <path d="M1432.75 65.59L1432.75 65.59" stroke="hsl(275.1, 83.2%, 75.5%)" stroke-width="1.5"></path>
        <path d="M1432.75 65.59L1396.99 188.75" stroke="hsl(275.1, 83.2%, 75.5%)" stroke-width="1.5"></path>
        <path d="M1432.75 65.59L1304.59 102.45" stroke="hsl(275.1, 83.2%, 75.5%)" stroke-width="1.5"></path>
        <path d="M1432.75 65.59L1567.31 52.96" stroke="hsl(275.1, 83.2%, 75.5%)" stroke-width="1.5"></path>
        <path d="M1432.75 65.59L1294.95 224.01" stroke="hsl(275.1, 83.2%, 75.5%)" stroke-width="1.5"></path>
        <path d="M82.6 535.44L82.6 535.44" stroke="hsl(275.1, 83.2%, 75.5%)" stroke-width="1.5"></path>
        <path d="M82.6 535.44L51.14 701.19" stroke="hsl(275.1, 83.2%, 75.5%)" stroke-width="1.5"></path>
        <path d="M51.14 701.19L51.14 701.19" stroke="hsl(275.1, 83.2%, 75.5%)" stroke-width="1.5"></path>
        <path d="M51.14 701.19L241.49 705.7" stroke="hsl(275.1, 83.2%, 75.5%)" stroke-width="1.5"></path>
        <path d="M241.49 705.7L241.49 705.7" stroke="hsl(275.1, 83.2%, 75.5%)" stroke-width="1.5"></path>
        <path d="M241.49 705.7L382.6 704.91" stroke="hsl(275.1, 83.2%, 75.5%)" stroke-width="1.5"></path>
        <path d="M241.49 705.7L405.78 544.07" stroke="hsl(275.1, 83.2%, 75.5%)" stroke-width="1.5"></path>
        <path d="M382.6 704.91L382.6 704.91" stroke="hsl(275.1, 83.2%, 75.5%)" stroke-width="1.5"></path>
        <path d="M382.6 704.91L494.95 681.74" stroke="hsl(275.1, 83.2%, 75.5%)" stroke-width="1.5"></path>
        <path d="M382.6 704.91L221.9 556.95" stroke="hsl(275.1, 83.2%, 75.5%)" stroke-width="1.5"></path>
        <path d="M541.18 397.82L541.18 397.82" stroke="hsl(275.1, 83.2%, 75.5%)" stroke-width="1.5"></path>
        <path d="M541.18 397.82L648.88 375.98" stroke="hsl(275.1, 83.2%, 75.5%)" stroke-width="1.5"></path>
        <path d="M541.18 397.82L509.1 506.8" stroke="hsl(275.1, 83.2%, 75.5%)" stroke-width="1.5"></path>
        <path d="M541.18 397.82L678.7 546.12" stroke="hsl(275.1, 83.2%, 75.5%)" stroke-width="1.5"></path>
        <path d="M541.18 397.82L494.95 681.74" stroke="hsl(275.1, 83.2%, 75.5%)" stroke-width="1.5"></path>
        <path d="M541.18 397.82L832.36 409.27" stroke="hsl(275.1, 83.2%, 75.5%)" stroke-width="1.5"></path>
        <path d="M509.1 506.8L509.1 506.8" stroke="hsl(275.1, 83.2%, 75.5%)" stroke-width="1.5"></path>
        <path d="M494.95 681.74L494.95 681.74" stroke="hsl(275.1, 83.2%, 75.5%)" stroke-width="1.5"></path>
        <path d="M494.95 681.74L509.1 506.8" stroke="hsl(275.1, 83.2%, 75.5%)" stroke-width="1.5"></path>
        <path d="M494.95 681.74L678.7 546.12" stroke="hsl(275.1, 83.2%, 75.5%)" stroke-width="1.5"></path>
        <path d="M494.95 681.74L241.49 705.7" stroke="hsl(275.1, 83.2%, 75.5%)" stroke-width="1.5"></path>
        <path d="M648.88 375.98L648.88 375.98" stroke="hsl(275.1, 83.2%, 75.5%)" stroke-width="1.5"></path>
        <path d="M648.88 375.98L678.7 546.12" stroke="hsl(275.1, 83.2%, 75.5%)" stroke-width="1.5"></path>
        <path d="M678.7 546.12L678.7 546.12" stroke="hsl(275.1, 83.2%, 75.5%)" stroke-width="1.5"></path>
        <path d="M678.7 546.12L815.9 509.7" stroke="hsl(275.1, 83.2%, 75.5%)" stroke-width="1.5"></path>
        <path d="M678.7 546.12L509.1 506.8" stroke="hsl(275.1, 83.2%, 75.5%)" stroke-width="1.5"></path>
        <path d="M832.36 409.27L832.36 409.27" stroke="hsl(275.1, 83.2%, 75.5%)" stroke-width="1.5"></path>
        <path d="M832.36 409.27L815.9 509.7" stroke="hsl(275.1, 83.2%, 75.5%)" stroke-width="1.5"></path>
        <path d="M832.36 409.27L959.95 352.25" stroke="hsl(275.1, 83.2%, 75.5%)" stroke-width="1.5"></path>
        <path d="M832.36 409.27L971.06 500.45" stroke="hsl(275.1, 83.2%, 75.5%)" stroke-width="1.5"></path>
        <path d="M832.36 409.27L648.88 375.98" stroke="hsl(275.1, 83.2%, 75.5%)" stroke-width="1.5"></path>
        <path d="M815.9 509.7L815.9 509.7" stroke="hsl(275.1, 83.2%, 75.5%)" stroke-width="1.5"></path>
        <path d="M830.38 695.81L830.38 695.81" stroke="hsl(275.1, 83.2%, 75.5%)" stroke-width="1.5"></path>
        <path d="M830.38 695.81L990.58 694.36" stroke="hsl(275.1, 83.2%, 75.5%)" stroke-width="1.5"></path>
        <path d="M830.38 695.81L815.9 509.7" stroke="hsl(275.1, 83.2%, 75.5%)" stroke-width="1.5"></path>
        <path d="M959.95 352.25L959.95 352.25" stroke="hsl(275.1, 83.2%, 75.5%)" stroke-width="1.5"></path>
        <path d="M959.95 352.25L1091.5 388.02" stroke="hsl(275.1, 83.2%, 75.5%)" stroke-width="1.5"></path>
        <path d="M971.06 500.45L971.06 500.45" stroke="hsl(275.1, 83.2%, 75.5%)" stroke-width="1.5"></path>
        <path d="M971.06 500.45L959.95 352.25" stroke="hsl(275.1, 83.2%, 75.5%)" stroke-width="1.5"></path>
        <path d="M971.06 500.45L815.9 509.7" stroke="hsl(275.1, 83.2%, 75.5%)" stroke-width="1.5"></path>
        <path d="M971.06 500.45L1091.5 388.02" stroke="hsl(275.1, 83.2%, 75.5%)" stroke-width="1.5"></path>
        <path d="M971.06 500.45L1147.72 551.28" stroke="hsl(275.1, 83.2%, 75.5%)" stroke-width="1.5"></path>
        <path d="M971.06 500.45L990.58 694.36" stroke="hsl(275.1, 83.2%, 75.5%)" stroke-width="1.5"></path>
        <path d="M990.58 694.36L990.58 694.36" stroke="hsl(275.1, 83.2%, 75.5%)" stroke-width="1.5"></path>
        <path d="M990.58 694.36L1125.36 708.93" stroke="hsl(275.1, 83.2%, 75.5%)" stroke-width="1.5"></path>
        <path d="M1155.72 -74.96L1155.72 -74.96" stroke="hsl(275.1, 83.2%, 75.5%)" stroke-width="1.5"></path>
        <path d="M1151.1 198.18L1151.1 198.18" stroke="hsl(275.1, 83.2%, 75.5%)" stroke-width="1.5"></path>
        <path d="M1091.5 388.02L1091.5 388.02" stroke="hsl(275.1, 83.2%, 75.5%)" stroke-width="1.5"></path>
        <path d="M1091.5 388.02L1147.72 551.28" stroke="hsl(275.1, 83.2%, 75.5%)" stroke-width="1.5"></path>
        <path d="M1147.72 551.28L1147.72 551.28" stroke="hsl(275.1, 83.2%, 75.5%)" stroke-width="1.5"></path>
        <path d="M1147.72 551.28L1125.36 708.93" stroke="hsl(275.1, 83.2%, 75.5%)" stroke-width="1.5"></path>
        <path d="M1125.36 708.93L1125.36 708.93" stroke="hsl(275.1, 83.2%, 75.5%)" stroke-width="1.5"></path>
        <path d="M1304.59 102.45L1304.59 102.45" stroke="hsl(275.1, 83.2%, 75.5%)" stroke-width="1.5"></path>
        <path d="M1304.59 102.45L1294.95 224.01" stroke="hsl(275.1, 83.2%, 75.5%)" stroke-width="1.5"></path>
        <path d="M1304.59 102.45L1396.99 188.75" stroke="hsl(275.1, 83.2%, 75.5%)" stroke-width="1.5"></path>
        <path d="M1304.59 102.45L1151.1 198.18" stroke="hsl(275.1, 83.2%, 75.5%)" stroke-width="1.5"></path>
        <path d="M1294.95 224.01L1294.95 224.01" stroke="hsl(275.1, 83.2%, 75.5%)" stroke-width="1.5"></path>
        <path d="M1294.95 224.01L1396.99 188.75" stroke="hsl(275.1, 83.2%, 75.5%)" stroke-width="1.5"></path>
        <path d="M1294.95 224.01L1151.1 198.18" stroke="hsl(275.1, 83.2%, 75.5%)" stroke-width="1.5"></path>
        <path d="M1294.95 224.01L1296.14 372.25" stroke="hsl(275.1, 83.2%, 75.5%)" stroke-width="1.5"></path>
        <path d="M1296.14 372.25L1296.14 372.25" stroke="hsl(275.1, 83.2%, 75.5%)" stroke-width="1.5"></path>
        <path d="M1296.14 372.25L1264.64 517.11" stroke="hsl(275.1, 83.2%, 75.5%)" stroke-width="1.5"></path>
        <path d="M1296.14 372.25L1459.23 399.51" stroke="hsl(275.1, 83.2%, 75.5%)" stroke-width="1.5"></path>
        <path d="M1296.14 372.25L1398.11 504.86" stroke="hsl(275.1, 83.2%, 75.5%)" stroke-width="1.5"></path>
        <path d="M1396.99 188.75L1396.99 188.75" stroke="hsl(275.1, 83.2%, 75.5%)" stroke-width="1.5"></path>
        <path d="M1459.23 399.51L1459.23 399.51" stroke="hsl(275.1, 83.2%, 75.5%)" stroke-width="1.5"></path>
        <path d="M1459.23 399.51L1398.11 504.86" stroke="hsl(275.1, 83.2%, 75.5%)" stroke-width="1.5"></path>
        <path d="M1459.23 399.51L1579.84 352.61" stroke="hsl(275.1, 83.2%, 75.5%)" stroke-width="1.5"></path>
        <path d="M1398.11 504.86L1398.11 504.86" stroke="hsl(275.1, 83.2%, 75.5%)" stroke-width="1.5"></path>
        <path d="M1398.11 504.86L1563.16 518.61" stroke="hsl(275.1, 83.2%, 75.5%)" stroke-width="1.5"></path>
        <path d="M1398.11 504.86L1278.05 666.81" stroke="hsl(275.1, 83.2%, 75.5%)" stroke-width="1.5"></path>
        <path d="M1398.11 504.86L1451.8 702.5" stroke="hsl(275.1, 83.2%, 75.5%)" stroke-width="1.5"></path>
        <path d="M1451.8 702.5L1451.8 702.5" stroke="hsl(275.1, 83.2%, 75.5%)" stroke-width="1.5"></path>
        <path d="M1451.8 702.5L1578.45 663.32" stroke="hsl(275.1, 83.2%, 75.5%)" stroke-width="1.5"></path>
        <path d="M1451.8 702.5L1563.16 518.61" stroke="hsl(275.1, 83.2%, 75.5%)" stroke-width="1.5"></path>
        <path d="M1451.8 702.5L1264.64 517.11" stroke="hsl(275.1, 83.2%, 75.5%)" stroke-width="1.5"></path>
        <path d="M1570.71 -99.82L1570.71 -99.82" stroke="hsl(275.1, 83.2%, 75.5%)" stroke-width="1.5"></path>
        <path d="M1570.71 -99.82L1567.31 52.96" stroke="hsl(275.1, 83.2%, 75.5%)" stroke-width="1.5"></path>
        <path d="M1570.71 -99.82L1432.75 65.59" stroke="hsl(275.1, 83.2%, 75.5%)" stroke-width="1.5"></path>
        <path d="M1570.71 -99.82L1284.55 -99.16" stroke="hsl(275.1, 83.2%, 75.5%)" stroke-width="1.5"></path>
        <path d="M1570.71 -99.82L1593.06 232.55" stroke="hsl(275.1, 83.2%, 75.5%)" stroke-width="1.5"></path>
        <path d="M1570.71 -99.82L1304.59 102.45" stroke="hsl(275.1, 83.2%, 75.5%)" stroke-width="1.5"></path>
        <path d="M1567.31 52.96L1567.31 52.96" stroke="hsl(275.1, 83.2%, 75.5%)" stroke-width="1.5"></path>
        <path d="M1567.31 52.96L1593.06 232.55" stroke="hsl(275.1, 83.2%, 75.5%)" stroke-width="1.5"></path>
        <path d="M1567.31 52.96L1396.99 188.75" stroke="hsl(275.1, 83.2%, 75.5%)" stroke-width="1.5"></path>
        <path d="M1593.06 232.55L1593.06 232.55" stroke="hsl(275.1, 83.2%, 75.5%)" stroke-width="1.5"></path>
        <path d="M1593.06 232.55L1579.84 352.61" stroke="hsl(275.1, 83.2%, 75.5%)" stroke-width="1.5"></path>
        <path d="M1593.06 232.55L1396.99 188.75" stroke="hsl(275.1, 83.2%, 75.5%)" stroke-width="1.5"></path>
        <path d="M1593.06 232.55L1459.23 399.51" stroke="hsl(275.1, 83.2%, 75.5%)" stroke-width="1.5"></path>
        <path d="M1593.06 232.55L1432.75 65.59" stroke="hsl(275.1, 83.2%, 75.5%)" stroke-width="1.5"></path>
        <path d="M1593.06 232.55L1563.16 518.61" stroke="hsl(275.1, 83.2%, 75.5%)" stroke-width="1.5"></path>
        <path d="M1579.84 352.61L1579.84 352.61" stroke="hsl(275.1, 83.2%, 75.5%)" stroke-width="1.5"></path>
        <path d="M1563.16 518.61L1563.16 518.61" stroke="hsl(275.1, 83.2%, 75.5%)" stroke-width="1.5"></path>
        <path d="M1563.16 518.61L1578.45 663.32" stroke="hsl(275.1, 83.2%, 75.5%)" stroke-width="1.5"></path>
        <path d="M1563.16 518.61L1459.23 399.51" stroke="hsl(275.1, 83.2%, 75.5%)" stroke-width="1.5"></path>
        <path d="M1563.16 518.61L1579.84 352.61" stroke="hsl(275.1, 83.2%, 75.5%)" stroke-width="1.5"></path>
        <path d="M1578.45 663.32L1578.45 663.32" stroke="hsl(275.1, 83.2%, 75.5%)" stroke-width="1.5"></path>
        <path d="M1578.45 663.32L1398.11 504.86" stroke="hsl(275.1, 83.2%, 75.5%)" stroke-width="1.5"></path>
        <path d="M1578.45 663.32L1459.23 399.51" stroke="hsl(275.1, 83.2%, 75.5%)" stroke-width="1.5"></path>
        <path d="M1578.45 663.32L1278.05 666.81" stroke="hsl(275.1, 83.2%, 75.5%)" stroke-width="1.5"></path>
        <circle r="25" cx="-104.55" cy="542.82" fill="url(&quot;#SvgjsRadialGradient1249&quot;)"></circle>
        <circle r="25" cx="-108.48" cy="646.48" fill="url(&quot;#SvgjsRadialGradient1249&quot;)"></circle>
        <circle r="25" cx="221.9" cy="556.95" fill="url(&quot;#SvgjsRadialGradient1249&quot;)"></circle>
        <circle r="25" cx="405.78" cy="544.07" fill="url(&quot;#SvgjsRadialGradient1249&quot;)"></circle>
        <circle r="25" cx="704.84" cy="697.03" fill="url(&quot;#SvgjsRadialGradient1249&quot;)"></circle>
        <circle r="25" cx="1132.69" cy="108.5" fill="url(&quot;#SvgjsRadialGradient1249&quot;)"></circle>
        <circle r="25" cx="1284.55" cy="-99.16" fill="url(&quot;#SvgjsRadialGradient1249&quot;)"></circle>
        <circle r="25" cx="1264.64" cy="517.11" fill="url(&quot;#SvgjsRadialGradient1249&quot;)"></circle>
        <circle r="25" cx="1278.05" cy="666.81" fill="url(&quot;#SvgjsRadialGradient1249&quot;)"></circle>
        <circle r="25" cx="1434.8" cy="-63.02" fill="url(&quot;#SvgjsRadialGradient1249&quot;)"></circle>
        <circle r="25" cx="1432.75" cy="65.59" fill="url(&quot;#SvgjsRadialGradient1249&quot;)"></circle>
        <circle r="5" cx="82.6" cy="535.44" fill="#d19df6"></circle>
        <circle r="5" cx="51.14" cy="701.19" fill="#d19df6"></circle>
        <circle r="5" cx="241.49" cy="705.7" fill="#d19df6"></circle>
        <circle r="5" cx="382.6" cy="704.91" fill="#d19df6"></circle>
        <circle r="5" cx="541.18" cy="397.82" fill="#d19df6"></circle>
        <circle r="5" cx="509.1" cy="506.8" fill="#d19df6"></circle>
        <circle r="5" cx="494.95" cy="681.74" fill="#d19df6"></circle>
        <circle r="5" cx="648.88" cy="375.98" fill="#d19df6"></circle>
        <circle r="5" cx="678.7" cy="546.12" fill="#d19df6"></circle>
        <circle r="5" cx="832.36" cy="409.27" fill="#d19df6"></circle>
        <circle r="5" cx="815.9" cy="509.7" fill="#d19df6"></circle>
        <circle r="5" cx="830.38" cy="695.81" fill="#d19df6"></circle>
        <circle r="5" cx="959.95" cy="352.25" fill="#d19df6"></circle>
        <circle r="5" cx="971.06" cy="500.45" fill="#d19df6"></circle>
        <circle r="5" cx="990.58" cy="694.36" fill="#d19df6"></circle>
        <circle r="5" cx="1155.72" cy="-74.96" fill="#d19df6"></circle>
        <circle r="5" cx="1151.1" cy="198.18" fill="#d19df6"></circle>
        <circle r="5" cx="1091.5" cy="388.02" fill="#d19df6"></circle>
        <circle r="5" cx="1147.72" cy="551.28" fill="#d19df6"></circle>
        <circle r="5" cx="1125.36" cy="708.93" fill="#d19df6"></circle>
        <circle r="5" cx="1304.59" cy="102.45" fill="#d19df6"></circle>
        <circle r="5" cx="1294.95" cy="224.01" fill="#d19df6"></circle>
        <circle r="5" cx="1296.14" cy="372.25" fill="#d19df6"></circle>
        <circle r="5" cx="1396.99" cy="188.75" fill="#d19df6"></circle>
        <circle r="5" cx="1459.23" cy="399.51" fill="#d19df6"></circle>
        <circle r="5" cx="1398.11" cy="504.86" fill="#d19df6"></circle>
        <circle r="5" cx="1451.8" cy="702.5" fill="#d19df6"></circle>
        <circle r="5" cx="1570.71" cy="-99.82" fill="#d19df6"></circle>
        <circle r="5" cx="1567.31" cy="52.96" fill="#d19df6"></circle>
        <circle r="5" cx="1593.06" cy="232.55" fill="#d19df6"></circle>
        <circle r="5" cx="1579.84" cy="352.61" fill="#d19df6"></circle>
        <circle r="5" cx="1563.16" cy="518.61" fill="#d19df6"></circle>
        <circle r="5" cx="1578.45" cy="663.32" fill="#d19df6"></circle>
    </g>
    <defs>
        <mask id="SvgjsMask1248">
            <rect width="1440" height="560" fill="#ffffff"></rect>
        </mask>
        <radialGradient id="SvgjsRadialGradient1249">
            <stop stop-color="#ffffff" offset="0.1"></stop>
            <stop stop-color="rgba(163, 59, 237, 1)" offset="0.2"></stop>
            <stop stop-color="rgba(163, 59, 237, 0)" offset="1"></stop>
        </radialGradient>
    </defs>
</svg>